/* XPM */
static char *_0410986a5e14e74b154c036203d500e8WrGFx3KvJilyKPT[] = {
/* columns rows colors chars-per-pixel */
"64 64 192 2 ",
"   c #1F1515",
".  c #221715",
"X  c #231816",
"o  c #261B19",
"O  c #281D1B",
"+  c #2B211E",
"@  c #32231E",
"#  c #2D2423",
"$  c #2F2A2A",
"%  c #312624",
"&  c #332926",
"*  c #3B2D24",
"=  c #352C2B",
"-  c #382E2C",
";  c #37302E",
":  c #3B312E",
">  c #353232",
",  c #3C3433",
"<  c #3B3838",
"1  c #3B3A3C",
"2  c #483525",
"3  c #503B27",
"4  c #413734",
"5  c #423937",
"6  c #4A3E34",
"7  c #433C3A",
"8  c #46403F",
"9  c #49413F",
"0  c #594531",
"q  c #6D512F",
"w  c #78603F",
"e  c #3C3E41",
"r  c #413F41",
"t  c #454241",
"y  c #4B4543",
"u  c #4E4947",
"i  c #43474B",
"p  c #45494D",
"a  c #4B4C4E",
"s  c #564B46",
"d  c #534C4A",
"f  c #54504F",
"g  c #58504F",
"h  c #454C52",
"j  c #4A4E52",
"k  c #4C5054",
"l  c #4E575D",
"z  c #565453",
"x  c #5A5554",
"c  c #525659",
"v  c #53595E",
"b  c #5C5C5C",
"n  c #675544",
"m  c #685B51",
"M  c #635C5B",
"N  c #6B615A",
"B  c #78695A",
"V  c #545C61",
"C  c #595E62",
"Z  c #5A6368",
"A  c #5C666B",
"S  c #5F6A72",
"D  c #626264",
"F  c #6A6463",
"G  c #6C6867",
"H  c #63676A",
"J  c #686769",
"K  c #64696D",
"L  c #6D6B6B",
"P  c #766B61",
"I  c #746D6C",
"U  c #7A7168",
"Y  c #646E74",
"T  c #696F73",
"R  c #667177",
"E  c #66737A",
"W  c #6A767C",
"Q  c #6B787E",
"!  c #757475",
"~  c #7A7574",
"^  c #7E7B7B",
"/  c #9A733A",
"(  c #836740",
")  c #836D54",
"_  c #84715B",
"`  c #8B755A",
"'  c #8D7860",
"]  c #8B7C6B",
"[  c #947F61",
"{  c #837A74",
"}  c #837D7D",
"|  c #B68A47",
" . c #A88654",
".. c #9B8363",
"X. c #978369",
"o. c #978772",
"O. c #A98C62",
"+. c #A58C6B",
"@. c #AB906D",
"#. c #B89560",
"$. c #B59B78",
"%. c #BEA27C",
"&. c #C6964C",
"*. c #C79A53",
"=. c #DAA551",
"-. c #DFAB57",
";. c #E6AD52",
":. c #E1AF5C",
">. c #D1A96C",
",. c #E7B669",
"<. c #EABB71",
"1. c #6E7C83",
"2. c #707F86",
"3. c #7B7E81",
"4. c #718087",
"5. c #74838B",
"6. c #79868D",
"7. c #7D8B93",
"8. c #868282",
"9. c #8A8583",
"0. c #8D8886",
"q. c #8D8B8B",
"w. c #928D8C",
"e. c #95908F",
"r. c #9B938B",
"t. c #83949C",
"y. c #969292",
"u. c #9B9696",
"i. c #9D9896",
"p. c #9E9A99",
"a. c #A69988",
"s. c #A69D95",
"d. c #A19D9C",
"f. c #BCA682",
"g. c #AFA493",
"h. c #A5A09E",
"j. c #8999A2",
"k. c #8FA0A9",
"l. c #91A3AD",
"z. c #97A9B4",
"x. c #A7A3A2",
"c. c #A9A5A5",
"v. c #ACA8A7",
"b. c #B1ADAC",
"n. c #B3B0AF",
"m. c #B5B2B2",
"M. c #BAB6B5",
"N. c #BBB9B7",
"B. c #BDBBBB",
"V. c #C5AB81",
"C. c #CFB488",
"Z. c #D3B588",
"A. c #DBBC8E",
"S. c #C6B497",
"D. c #D8BC92",
"F. c #E5BC80",
"G. c #C2BFBE",
"H. c #CFC09C",
"J. c #DEC497",
"K. c #EDC98F",
"L. c #EBC995",
"P. c #E8C998",
"I. c #F0CE9A",
"U. c #F4D19D",
"Y. c #F9D49D",
"T. c #CBC4BE",
"R. c #F7D5A2",
"E. c #FBD6A1",
"W. c #FCD9A4",
"Q. c #F9DBAD",
"!. c #F8DDB0",
"~. c #FBE0B9",
"^. c #A5B9C4",
"/. c #B2C8D4",
"(. c #C5C3C2",
"). c #C9C7C6",
"_. c #CAC8C7",
"`. c #CDCBCA",
"'. c #D1CFCF",
"]. c #D5D3D2",
"[. c #D9D7D7",
"{. c #DCDADA",
"}. c #E1DFDF",
"|. c #FBE6C2",
" X c #E1E0DF",
".X c #E4E3E3",
"XX c #E8E8E7",
"oX c #ECEBEB",
"OX c #F0EFEF",
"+X c #F0F0EF",
"@X c #F4F4F4",
"#X c #FFFFFF",
/* pixels */
"#X#X#X#X#X#X#X#X#X#X#X#X#X#X#X#X#X#X#X#X#X#X#X#X#X#X#X#X#X#X#X#X#X#X#X#X#X#X#X#X#X#X#X#X#X#X#X#X#X#X#X#X#X#X#X#X#X#X#X#X#X#X#X#X",
"#X#X#X#X#X#X#X#X#X#X#X#X#X#X#X#X#X#X#X#X#X#X#X#X#X#X#X#X#X#X#X#X#X#X#X#X#X#X#X#X#X#X#X#X#X#X#X#X#X#X#X#X#X#X#X#X#X#X#X#X#X#X#X#X",
"#X#X#X#X#X#X#X#X#X#X#X#X#X#X#X#X#X#X#X#X#X#X#X#X#X#X#X#X#X#X#X#X#X#X#X#X#X#X#X#X#X#X#X#X#X#X#X#X#X#X#X#X#X#X#X#X#X#X#X#X#X#X#X#X",
"#X#X#X#X#X#X@X@X.X@X#X#X#X#X#X#X#X#X#X#X#X#X#X#X#X#X#X#X#X#X#X#X#X#X#X#X#X#X#X#X#X#X#X#X#X#X#X#X#X#X#X#X#X#X#X#X#X#X#X#X#X#X#X#X",
"#X#X#X#X#X#X@X@Xm.G.#X#X#X#X#X#X#X#X@X[.m.d.c.(.XX{..X#X#X#X#X#X#X#X#X#X#X#X#X#X#X#X#X#X#X#X#X#X#X#X#X#X#X#X#X#X#X#X#X#X#X#X#X#X",
"#X#X#X#X#XOXoX@Xv.M #XXX@X#X#X@X@X(.x z 2.7.6.H z - : ].#X#X#X#X#X#X#X#X#X#X#X#X#X#X#X#X#X#X#X#X#X#X#X#X#X#X#X#X#X#X#X#X#X#X#X#X",
"#X#X#X#X#X).9.@Xm.f p.(.d.#Xe.- 7 - 7./.^.t.5.4.2.R , m.#X#X#X#X#X#X#X#X#X#X#X#X#X#X#X#X#X#X#X#X#X#X#X#X#X#X#X#X#X#X#X#X#X#X#X#X",
"#X#X#X#X#X(.y 8.`.x D u.u G.z j.Y k > v Y 1.Q 2.E 2.1.z oX#X#X#X#X#X#X#X#X#X#X#X#X#X#X#X#X#X#X#X#X#X#X#X#X#X#X#X#X#X#X#X#X#X#X#X",
"#X#X#X#X#X{.b L F u G x t M c 1.l.1.j.K t a E 2.1.2.Q E } #X#X#X#X#X#X#X#X#X#X#X#X#X#X#X#X#X#X#X#X#X#X#X#X#X#X#X#X#X#X#X#X#X#X#X",
"#X#X#X#X#X@XM L J 7 y x z b f 1 1.S z.1.k.E 1 c 1.2.2.S j @X#X#X#X#X#X#X#X#X#X#X#X#X#X#X#X#X#X#X#X#X#X#X#X#X#X#X#X#X#X#X#X#X#X#X",
"#X#X#X#X#X#X[.9 z x x z z z z z t , r p j.1.t.v 1 Z c p p }.#X#X#X#X#X#X#X#X#X#X#X#X#X#X#X#X#X#X#X#X#X#X#X#X#X#X#X#X#X#X#X#X#X#X",
"#X#X#X#X#X@X[._.F d z t y u 5 5 f z y < # > W Y a ] S.+., .X#X#X#X#X#X#X#X#X#X#X#X#X#X#X#X#X#X#X#X#X#X#X#X#X#X#X#X#X#X#X#X#X#X#X",
"#X#X#X#X#X#X0.u M , y u + .     . O . . X . . X U D...U._ .X#X#X#X#X#X#X#X#X#X#X#X#X#X#X#X#X#X#X#X#X#X#X#X#X#X#X#X#X#X#X#X#X#X#X",
"#X#X#X#X#X#X#Xy.x f 8 # 0 &.| | | | | q , 0.. . f.`  .K.' {.#X#X#X#X#X#X#X#X#X#X#X#X#X#X#X#X#X#X#X#X#X#X#X#X#X#X#X#X#X#X#X#X#X#X",
"#X#X#X#X#X#X#X#XoX]._.P J.Z.Y.Y.L.O.2 x [..X= O A.Y.C.A.4 .X#X#X#X#X#X#X#X#X#X#X#X#X#X#X#X#X#X#X#X#X#X#X#X#X#X#X#X#X#X#X#X#X#X#X",
"#X#X#X#X#X#X#X#X#X#XN.S.$.[ @.n % - v.@X#X#X4 * L.P...6 , i.p.@X#X#X#X#X#X#X#X#X#X#X#X#X#X#X#X#X#X#X#X#X#X#X#X#X#X#X#X#X#X#X#X#X",
"#X#X#X#X#X#X#X#X#X.X- 6 + X & x x.@X#X[.#X+XO B >.,./ 2 O X X M OX#X#X#X#X#X#X#X#X#X#X#X#X#X#X#X#X#X#X#X#X#X#X#X#X#X#X#X#X#X#X#X",
"#X#X#X#X#X#X#X#X#Xe.q.9.w.I XX#X#X#X#Xx.#Xi.@ J.n P.<.=.| : > O y ~ x.`.oX#X#X#X#X#X#X#X#X#X#X#X#X#X#X#X#X#X#X#X#X#X#X#X#X#X#X#X",
"#X#X#X#X#X#X#X#X#Xw.#X#X#XF oX#X#X#X#X#X_.% $.U.{ X.E.<.&.1 < i V p $ + - y I i._.@X#X#X#X#X#X#X#X#X#X#X#X#X#X#X#X#X#X#X#X#X#X#X",
"#X#X#X#X#X#X#X#X#Xw.@X#X9.].I ].@X@X{.w.: $.E.C.h._ W.L.( c r 5.4.1.Z > + d d t , - u ~ x.].oX#X#X#X#X#X#X#X#X#X#X#X#X#X#X#X#X#X",
"#X#X#X#X#X#X#X#X#X[.p.@X#X#Xi.+ 5 5 6 ) A.E.E._ r.V.$.s.p.> - 5.2.2.1.A > + y z z 8 , , & + 7 I b..X#X#X#X#X#X#X#X#X#X#X#X#X#X#X",
"#X#X#X#X#X#X#X#X#X#X].9.d.y.s Z.A.C.[ +.W.E.P.+...P `.@Xv.X o 2.2.2.2.2.Z # o y z z y + . X X o % - F _.#X#X#X#X#X#X#X#X#X#X#X#X",
"#X#X#X#X#X#X#X#X#X#X#X@X} # n R.E.E.R.3 :.#.) N M.#X#X#XM.o 8.R 2.2.Y 1.1.j o X t ; 7 d , o . . X # : # x (.@X#X#X#X#X#X#X#X#X#X",
"#X#X#X#X#X#X#X#X#X#X#X#X#X0.f.E.E.E.%.& m w.'.@X#X#X#X#Xn.X b.c 5.2.V 1.2.E = . o : . o & , o . . . X = 7 = I XX#X#X#X#X#X#X#X#X",
"#X#X#X#X#X#X#X#X#X#X#X#X@XN !.E.E.Z.s .X@X#X#X#X#X#X#X#Xi.+ } < 5.4.k R 2.2.k o . o X . . X o . X . . . o 7 , 4 `.#X#X#X#X#X#X#X",
"#X#X#X#X#X#X#X#X#X#X#X#Xi.S.W.E.A.m  X#X#X#X#X#X#X#X#X#X~ = g # 5.4.p A 2.2.Y # . . . . . . . . X X X . . X 5 7 = ).#X#X#X#X#X#X",
"#X#X#X#X#X#X#X#X#X#X#X@XB |.E.R.m .X#X#X#X@Xi.).#X#X#X#Xx # # o Y 4.j c 2.2.1.e . . . X X X X X X X X X . . . , 5 - {.#X#X#X#X#X",
"#X#X#X#X#X#X#X#X#X#X#X[.o.~.E.+.n.#X#X#X#Xs.H.M.#X#X#X#X, X X O Z 4.v , 2.2.4.v o . . X X X X X X X X X . . . X : & d @X#X#X#X#X",
"#X#X#X#X#X#X#X#X#X#X#XG.a.Q.I.B #X#X#X#X@Xs.I.a.#X#X#X@X% X X ^ D Y Z # Q 2.2.Y # . . X X X X X X X X X X X . . . - o c._.#X#X#X",
"#X#X#X#X#X#X#X#X#X#X#XB.X.Q.` (.#X#X#X#X@Xa.W.f.(.#XoX(., # 1 K 1.2.Y O A 1.2.A # X . X X X X X X X X X X X X . X X o d (.(.#X#X",
"#X#X#X#X#X#X#X#X#X#X#X.X: 0 { @X#X#X#X#X#X9.V.<.*.s.L A C 1.4.4.1.S a M c 1.t , e X . X X X X X X X X X X X X X . . X + [.i.#X#X",
"#X#X#X#X#X#X#X#X#X#X#X#X_.v.@X#X#X#X#X.Xg.C.U.-.;.=.w Y a C b J ^ c.oXb.- = v 1.p o X X X X X X X X X X X X X X X X . X m.B.#X#X",
"#X#X#X#X#X#X#X#X#X#X#X#X#X#X#X#X#X#X#Xb.J.P.I.<.;.;. .x ! [.@X#X#X#X@X8.p Q 2.1.i X . X X X X X X X X X X X X X X X . X p.@X#X#X",
"#X#X#X#X#X#X#X#X#X#X#X#X#X#X#X#X#X#X#XXX] D.Y.F.;.=.T.@X@X#X#X#X#X`.D W 2.2.2.S 1 X . X X X X X X X X X X X X X X X . X u.#X#X#X",
"#X#X#X#X#X#X#X#X#X#X#X#X#X#X#X#X#X#X#X@Xr.J.A.L.:.O.@X#X#X#X#XoXy.Y 7.2.2.2.R h O X . X X X X X X X X X X X X X X X . X c.#X#X#X",
"#X#X#X#X#X#X#X#X#X#X#X#X#X#X#X#X#X#X#X#XXXd.B ..] {.#X#X#X@XN.! 6.5.2.2.R V e O X . X X X X X X X X X X X X X X X X . o `.#X#X#X",
"#X#X#X#X#X#X#X#X#X#X#X#X#X#X#X#X#X#X#X#X#X#XoX.X@X#X#X#XXX^ 5.5.4.2.1.l 1 # X X o X . X X X X X X X X X X X X X X X X , XX#X#X#X",
"#X#X#X#X#X#X#X#X#X#X#X#X#X#X#X#X#X#X#X#X#X#X#X#X#X#X@Xb.K 7.5.2.R D J I o . X & M X X X X X X X X X X X X X X X X . X I #X#X#X#X",
"#X#X#X#X#X#X#X#X#X#X#X#X#X#X#X#X#X#X#X#X#X#X#X#X#X@Xi.W 5.1.K q.B..X#X} X . X I y.X X X X X X X X X X X X X X X . X # `.#X#X#X#X",
"#X#X#X#X#X#X#X#X#X#X#X#X#X#X#X#X#X#X#X#X#X#X#X#X#X(.Y 5.1.~ .X#X#X#XOX4 X X O `.].o X . X X X X X X X X X X X . . X I #X#X#X#X#X",
"#X#X#X#X#X#X#X#X#X#X#X#X#X#X#X#X#X#X#X#X#X#X#X#X@XJ 5.4.b {.#X#X#X#XB.X X X x @X@XF X . . X X X X X X X X X X X X 9 OX#X#X#X#X#X",
"#X#X#X#X#X#X#X#X#X#X#X#X#X#X#X#X#X#X#X#X#X#X#X#Xm.E 2.Y 8.#X#X#X#X#X~ X X O m.#X#X[., X X . X X X X X X X X X X 5 [.#X#X#X#X#X#X",
"#X#X#X#X#X#X#X#X#X#X#X#X#X#X#X#X#X#X#X#X#X#X#X@X! 4.1.b @X#X#X#X#X#X7 X X u @X#X#X#X].: X X . . X X X . X X X 7 {.#X#X#X#X#X#X#X",
"#X#X#X#X#X#X#X#X#X#X#X#X#X#X#X#X#X#X#X#X#X#X#XB.Q 2.D [.#X#X#X#X#X#X& X X x.#X#X#X#X#X.XF + X X X . X X X % ^ @X#X#X#X#X#X#X#X#X",
"#X#X#X#X#X#X#X#X#X#X#X#X#X#X#X#X#X#X#X#X#X#X@X3.4.H ).#X#X#X#X#X#X#Xd X X d OX#X#X#X#X#X@X`.} d - & , z w.[.#X#X#X#X#X#X#X#X#X#X",
"#X#X#X#X#X#X#X#X#X#X#X#X#X#X#X#X#X#X#X#X#X#X).R c B.#X#X#X#X#X#X#X#Xb.X X X ! @X#X#X#X#X#X#X#X.Xm.(.oX@X#X#X#X#X#X#X#X#X#X#X#X#X",
"#X#X#X#X#X#X#X#X#X#X#X#X#X#X#X#X#X#X#X#X#X#X^ A u.#X#X#X#X#X#X#X#X#X@XI o X o d.#X#X#X#X#X#X#X#X#X#X#X#X#X#X#X#X#X#X#X#X#X#X#X#X",
"#X#X#X#X#X#X#X#X#X#X#X#X#X#X#X#X#X#X#X#X#X`.Y L @X#X#X#X#X#X#X#X#X#X#XOXM X X + m.#X#X#X#X#X#X#X#X#X#X#X#X#X#X#X#X#X#X#X#X#X#X#X",
"#X#X#X#X#X#X#X#X#X#X#X#X#X#X#X#X#X#X#X#X#X8.1.M.#X#X#X#X#X#X#X#X#X#X#X#X@XM X X % (.#X#X#X#X#X#X#X#X#X#X#X#X#X#X#X#X#X#X#X#X#X#X",
"#X#X#X#X#X#X#X#X#X#X#X#X#X#X#X#X#X#X#X#X XT K .X#X#X#X#X#X#X#X#X#X#X#X#X#X@XF o X = `.#X#X#X#X#X#X#X#X#X#X#X#X#X#X#X#X#X#X#X#X#X",
"#X#X#X#X#X#X#X#X#X#X#X#X#X#X#X#X#X#X#X#Xd.# + 0.@X@X#X#X#X#X#X#X#X#X#X#X#X#X@XI X X - (.#X#X#X#X#X#X#X#X#X#X#X#X#X#X#X#X#X#X#X#X",
"#X#X#X#X#X#X#X#X#X#X#X#X#X#X#X#X#X#X#X@Xd X X o c.).#X#X#X#X#X#X#X#X#X#X#X#X#X@XG X X # d.#X#X#X#X#X#X#X#X#X#X#X#X#X#X#X#X#X#X#X",
"#X#X#X#X#X#X#X#X#X#X#X#X#X#X#X#X#X#X#XN.# X o g .X.X#X#X#X#X#X#X#X#X#X#X#X#X#X#X@Xt X X } #X#X#X#X#X#X#X#X#X#X#X#X#X#X#X#X#X#X#X",
"#X#X#X#X#X#X#X#X#X#X#X#X#X#X#X#X#X#X@Xz o X N @X#X#X#X#X#X#X#X#X#X#X#X#X#X#X#X#X@Xy X o m.#X#X#X#X#X#X#X#X#X#X#X#X#X#X#X#X#X#X#X",
"#X#X#X#X#X#X#X#X#X#X#X#X#X#X#X#X#X#Xi.5 X 4 @X#X#X#X#X#X#X#X#X#X#X#X#X#X#X#X#X#X[.O X % }.#X#X#X#X#X#X#X#X#X#X#X#X#X#X#X#X#X#X#X",
"#X#X#X#X#X#X#X#X#X#X#X#X#X#X#X#X#X[.f O o b.#X#X#X#X#X#X#X#X#X#X#X#X#X#X#X#X#X#Xi.X X y #X#X#X#X#X#X#X#X#X#X#X#X#X#X#X#X#X#X#X#X",
"#X#X#X#X#X#X#X#X#X#X#X#X#X#X#X#X@XI - X d @X#X#X#X#X#X#X#X#X#X#X#X#X#X#X#X#X#X@Xy X X ^ #X#X#X#X#X#X#X#X#X#X#X#X#X#X#X#X#X#X#X#X",
"#X#X#X#X#X#X#X#X#X#X#X#X#X#X#X#X8., X + ).#X#X#X#X#X#X#X#X#X#X#X#X#X#X#X#X@Xw.5 X X X M.#X#X#X#X#X#X#X#X#X#X#X#X#X#X#X#X#X#X#X#X",
"#X#X#X#X#X#X#X#X#X#X#X#X#X#X@X} = X + h.#X#X#X#X#X#X#X#X#X#X#X#X#X#X#X#X#XM.5 , , y w.@X#X#X#X#X#X#X#X#X#X#X#X#X#X#X#X#X#X#X#X#X",
"#X#X#X#X#X#X#X#X#X#X#X#X#X#X.Xd # d M.#X#X#X#X#X#X#X#X#X#X#X#X#X#X#X#X#X#X#X@XXXoX@X#X#X#X#X#X#X#X#X#X#X#X#X#X#X#X#X#X#X#X#X#X#X",
"#X#X#X#X#X#X#X#X#X#X#X#X#X#X#X@XoX@X#X#X#X#X#X#X#X#X#X#X#X#X#X#X#X#X#X#X#X#X#X#X#X#X#X#X#X#X#X#X#X#X#X#X#X#X#X#X#X#X#X#X#X#X#X#X",
"#X#X#X#X#X#X#X#X#X#X#X#X#X#X#X#X#X#X#X#X#X#X#X#X#X#X#X#X#X#X#X#X#X#X#X#X#X#X#X#X#X#X#X#X#X#X#X#X#X#X#X#X#X#X#X#X#X#X#X#X#X#X#X#X",
"#X#X#X#X#X#X#X#X#X#X#X#X#X#X#X#X#X#X#X#X#X#X#X#X#X#X#X#X#X#X#X#X#X#X#X#X#X#X#X#X#X#X#X#X#X#X#X#X#X#X#X#X#X#X#X#X#X#X#X#X#X#X#X#X",
"#X#X#X#X#X#X#X#X#X#X#X#X#X#X#X#X#X#X#X#X#X#X#X#X#X#X#X#X#X#X#X#X#X#X#X#X#X#X#X#X#X#X#X#X#X#X#X#X#X#X#X#X#X#X#X#X#X#X#X#X#X#X#X#X"
};
