/* XPM */
static char *_07a0aad302849d985b702aa1c6e15ee9q3Rzpg8EHQ6Xw3X[] = {
/* columns rows colors chars-per-pixel */
"64 64 239 2 ",
"   c #000000",
".  c #00050B",
"X  c #000915",
"o  c #000A19",
"O  c #03121B",
"+  c #191615",
"@  c #041225",
"#  c #00122B",
"$  c #041834",
"%  c #272625",
"&  c #66221C",
"*  c #513334",
"=  c #763C2B",
"-  c #794423",
";  c #5C643F",
":  c #001C43",
">  c #102A4F",
",  c #052550",
"<  c #012657",
"1  c #2E3747",
"2  c #002B65",
"3  c #002E6C",
"4  c #003378",
"5  c #2F4648",
"6  c #1A437F",
"7  c #144D7C",
"8  c #314978",
"9  c #74535C",
"0  c #6C734B",
"q  c #54476D",
"w  c #735773",
"e  c #556471",
"r  c #706A6B",
"t  c #667677",
"y  c #7C7777",
"u  c #874823",
"i  c #9B4827",
"p  c #9C532B",
"a  c #9A4630",
"s  c #9A5A35",
"d  c #AA5232",
"f  c #B56438",
"g  c #C6443A",
"h  c #D6483B",
"j  c #D84E3B",
"k  c #D9553B",
"l  c #D3603C",
"z  c #DE623C",
"x  c #E16A3D",
"c  c #E4763D",
"v  c #8C4E5A",
"b  c #964E5B",
"n  c #B04C4E",
"m  c #AA5357",
"M  c #B66F4B",
"N  c #B87C5A",
"B  c #86566B",
"V  c #925563",
"C  c #89667C",
"Z  c #86687A",
"A  c #8D7375",
"S  c #997C74",
"D  c #A96963",
"F  c #C44A46",
"G  c #DB5F53",
"H  c #CD724D",
"J  c #D87A54",
"K  c #CE7775",
"L  c #7F8A5C",
"P  c #78896C",
"I  c #BF9233",
"U  c #CE9F38",
"Y  c #EA863E",
"T  c #EE943F",
"R  c #D5A63A",
"E  c #8F8E6F",
"W  c #85946B",
"Q  c #85867B",
"!  c #AB836B",
"~  c #AE8368",
"^  c #A5897B",
"/  c #AA9371",
"(  c #8DA377",
")  c #95AB7B",
"_  c #AAA676",
"`  c #C18253",
"'  c #D88156",
"]  c #D9865A",
"[  c #C69F5A",
"{  c #D1AE4D",
"}  c #D4B14D",
"|  c #F3A441",
" . c #EBB34B",
".. c #C38A6B",
"X. c #C49668",
"o. c #E38774",
"O. c #CCB26E",
"+. c #EABA6F",
"@. c #EFC045",
"#. c #F1C657",
"$. c #DBC67F",
"%. c #E2C465",
"&. c #E6C177",
"*. c #003986",
"=. c #003F94",
"-. c #184686",
";. c #145586",
":. c #004097",
">. c #00429B",
",. c #1C5895",
"<. c #2B5189",
"1. c #375A8F",
"2. c #396F99",
"3. c #0046A5",
"4. c #004AAD",
"5. c #1457A9",
"6. c #0C52B1",
"7. c #1559B4",
"8. c #1C66A6",
"9. c #1B6FB0",
"0. c #1867BB",
"q. c #1C76B9",
"w. c #2C67B5",
"e. c #515982",
"r. c #52738F",
"t. c #57729E",
"y. c #6B7C85",
"u. c #6F7393",
"i. c #4A75A5",
"p. c #627FA3",
"a. c #1477C6",
"s. c #3C75C0",
"d. c #447AC3",
"f. c #977381",
"g. c #5E8588",
"h. c #5E8A8D",
"j. c #5A8A91",
"k. c #608183",
"l. c #69868C",
"z. c #658D90",
"x. c #6E9098",
"c. c #77999B",
"v. c #5B96AB",
"b. c #688DAA",
"n. c #7B89AA",
"m. c #1C85CA",
"M. c #1C8CD3",
"N. c #1D91D8",
"B. c #2D91CF",
"V. c #588BC7",
"C. c #6C97CF",
"Z. c #4BA5DD",
"A. c #65ADD7",
"S. c #78A6D3",
"D. c #54ABE1",
"F. c #6FB6E3",
"G. c #9A8A89",
"H. c #939491",
"J. c #A38985",
"K. c #B09085",
"L. c #B2968A",
"P. c #A89794",
"I. c #B59C94",
"U. c #B29C99",
"Y. c #9DB684",
"T. c #9FB686",
"R. c #98AC97",
"E. c #ACB58F",
"W. c #ADA899",
"Q. c #BAA895",
"!. c #8691AF",
"~. c #AA99A9",
"^. c #8FA7AA",
"/. c #AAA5A3",
"(. c #ABA9A4",
"). c #B8AAA7",
"_. c #B9B5A6",
"`. c #ADB2B5",
"'. c #B9B4B4",
"]. c #CF8E8F",
"[. c #DC8C88",
"{. c #E68F87",
"}. c #C0AE92",
"|. c #C4B496",
" X c #EAA39D",
".X c #EBB196",
"XX c #C3AEAA",
"oX c #D0A0A4",
"OX c #C3B5AE",
"+X c #D7B5AD",
"@X c #CABBB8",
"#X c #D5BBB5",
"$X c #E4B7B7",
"%X c #AEC794",
"&X c #B8C7A9",
"*X c #D7C787",
"=X c #D5CC98",
"-X c #EFCE90",
";X c #F8CC95",
":X c #C9C6A5",
">X c #CDCFB0",
",X c #D4C1BE",
"<X c #D8C2BF",
"1X c #F9D3A5",
"2X c #F8D5A9",
"3X c #EFCEB0",
"4X c #F9DBB6",
"5X c #DAE3BE",
"6X c #E9E1A8",
"7X c #EBE5B9",
"8X c #FAE0BF",
"9X c #99AAC5",
"0X c #8CAED4",
"qX c #A6B3CA",
"wX c #AFBED2",
"eX c #9FBBE1",
"rX c #BAC6CE",
"tX c #9CC8E5",
"yX c #AAC4E4",
"uX c #B6CCE8",
"iX c #C4C9C7",
"pX c #D6C2C0",
"aX c #D8C4C2",
"sX c #C9D1DB",
"dX c #D2DBDB",
"fX c #E1DECB",
"gX c #FAE4C7",
"hX c #F9F6C8",
"jX c #F8EDD5",
"kX c #CDD8E8",
"lX c #DBE6E8",
"zX c #DFECF2",
"xX c #E3E8EE",
"cX c #EDEEEF",
"vX c #FDF3E7",
"bX c #E0F1F2",
"nX c #EEF2F8",
"mX c #F4F7FB",
"MX c #FFFFFF",
/* pixels */
"4.4.4.4.4.4.4.4.4.4.4.4.4.4.4.*.4.4.4.4.4.4.4.4.4.4.4.4.4.4.4.4.4.4.4.4.4.4.4.4.4.4.4.4.4.4.4.4.4.4.4.4.4.4.4.4.4.4.4.4.4.4.4.4.",
"4.4.4.4.4.4.4.4.4.4.4.4.4.4.4.*.4.4.4.4.4.4.4.4.4.4.4.4.4.4.4.4.4.4.4.4.4.4.4.4.4.4.4.4.4.4.4.4.4.4.4.4.4.4.4.4.4.4.4.4.4.4.4.4.",
"4.4.4.4.4.4.4.4.4.4.4.4.4.4.4.4 4.4.4.4.4.4.4.4.4.4.4.4.4.4.4.4.4.4.4.4.4.4.4.4.4.4.4.4.4.4.4.4.4.4.4.4.4.4.4.4.4.4.4.4.4.4.4.4.",
"4.4.4.4.4.4.4.4.4.4.4.4.4.4.4.3 4.4.4.4.4.4.4.4.4.4.4.4.4.4.4.4.4.4.4.4.4.4.4.4.4.4.4.4.4.4.4.4.4.4.4.4.4.4.4.4.4.4.4.4.4.4.4.4.",
"4.4.4.4.4.4.4.4.4.4.4.4.4.4.4.: *.4.4.4.4.4.4.4.4.4.4.4.4.4.4.4.4.4.4.4.4.4.4.4.4.4.4.4.4.4.4.4.4.4.4.w.d.s.4.4.4.4.4.4.4.4.4.4.",
"4.4.4.4.4.4.4.4.4.4.4.4.4.4.4.X : 4.4.4.4.4.7.d.s.yXuX0X4.4.4.4.4.4.4.4.4.4.4.4.4.4.4.4.4.4.4.7.S.uXeXmXMXMXyX7.4.4.4.4.4.4.4.4.",
"4.4.4.4.4.4.4.4.4.4.4.4.4.4.4.X , 4.4.4.0.C.zXMXMXMXMXMXyXV.4.4.4.4.4.4.4.4.4.4.4.4.4.4.4.0.0XkXMXMXMXMXMXMXMXnXeX7.4.4.4.4.4.4.",
"4.4.4.4.4.4.4.4.4.4.4.4.4.4.4.X : 4.4.6.nXMXMXMXMXMXMXMXMXMXC.4.4.4.4.4.4.4.4.4.4.4.4.4.4.uXMXMXMXMXMXMXMXMXMXMXMX0X6.4.4.4.4.4.",
"4.4.4.4.4.4.4.4.4.4.4.:.3 *.=.  # 4.4.6.nXMXMXMXMXMXMXMXMXMXmXC.4.4.4.*.>.4.4.4.4.4.4.4.4.yXMXMXMXMXMXMXMXMXMXMXMXMXuX4.4.4.4.4.",
"4.4.4.4.4.4.4.4.4.4.4.3     :   . < *.4.w.uXMXMXMXMXMXMXMXMXMX0X4.4.4.*.3.4.4.4.4.4.4.4.4.7.0XMXMXMXMXMXMXMXMXMXMXMXnX4.4.4.4.4.",
"4.4.4.4.4.4.4.4.4.4.4.3     .       # 4.4.w.nXMXmXMXMXmXMXyXV.6.4.4.4.*.:.4.4.4.4.4.4.4.4.4.4.kXMXMXMXMXMXMXMXMXzXyXd.4.4.4.4.4.",
"4.4.4.4.4.4.4.4.4.4.4.3             # 4.4.4.4.6.4.6.6.6.6.4.4.4.4.4.4.3 *.4.4.4.4.4.4.4.4.4.4.7.C.0XV.S.0XC.S.S.w.4.4.4.4.4.4.4.",
"4.4.4.4.4.4.4.4.4.4.4.*.            # 4.4.4.4.4.4.4.4.4.4.4.4.4.4.4.<   . $ 2 4.4.4.4.4.4.4.4.4.4.4.4.4.4.4.4.4.4.4.4.4.4.4.4.4.",
"4.4.4.4.4.4.4.4.4.4.4.3             o 4.4.4.4.4.4.4.4.4.4.4.4.4.4.4.#       $ :.4.4.4.4.4.4.4.4.4.4.4.4.4.4.4.4.4.4.4.4.4.4.4.4.",
"4.4.4.4.4.4.4.4.4.4.4.3             X 4.4.4.4.4.4.4.4.4.4.4.4.4.4.4.#           >.4.4.4.4.4.4.4.4.4.4.4.4.4.4.4.4.4.4.4.4.4.4.4.",
"4.4.4.4.4.4.4.4.4.4.4.3             @ 4.4.4.4.4.4.4.4.4.4.4.4.4.4.4.#           4.4.4.4.4.4.4.4.4.4.4.4.4.4.4.4.4.4.4.4.4.4.4.4.",
"4.4.4.4.4.4.4.4.4.4.4.3               o 4.4.4.4.4.4.4.4.4.4.4.4.4.4.#           4.4.4.4.4.4.4.4.4.4.4.4.4.4.4.4.4.4.4.4.4.4.4.4.",
"4.4.4.>.:.3.4.4.4.4.4.3                 4.4.4.4.4.4.4.4.4.4.4.4.4.4.#           4.4.4.4.4.4.4.4.4.4.4.4.4.4.4.4.4.4.4.4.4.4.4.4.",
"4 o       X < 4.4.4.4.3                 4.4.4.4.4.4.4.4.4.4.4.4.4.4.#           4.4.4.4.4.3 3 4 >.4.4.4.4.4.4.3 , 3 3.4.4.4.4.4.",
"<           X 4.4.4.4.3                 >.4.4.4.4.4.4.4.4.4.3.: 4 4.#           4.4.4.4.@       3 4.4.4.: X X       *.4.4.4.4.4.",
"<           X 4.4.4.4.3                   $ o < , $ # >.4.4.*.  : 3.#           :.4.*., .       3 4.4.4.o           *.4.4.4.4.4.",
"<           X 4.4.4.4.3                               :.4.4.:     3 #           4.4.            3 4.3 *..           *.4.4.4.4.4.",
"<           X 4.4.4.4.4                               :.4.4.:     3 #           3 *.            3 *.          % 9 /.(.(./.5.4.4.",
":             4.4.4.4.3                               :.3.< @     3 #                           3 2           % r (.(.(.(.w.4.4.",
"              4.4.: : @                               :.:.        3 #                           3 3           % e (.(.(.(.w.4.4.",
"              4.4.                                    :.$         3 #                           3 3           % r (.(.(.(.2.4.4.",
"              4.*..                                   <           3 $ + + + + + + + + + + + + + > <           * A (.(.(.(.i.3 3 ",
"    ,.,.,.8.,.,.,.8.,.,.8.8.,.8.8.$                               < 1 J.I.I.L.L.I.I.L.I.I.K.I.L.L.n i i i i i a f H H H H d i a ",
"    * F F m F F F m F F n n F n n                                     ).aXaXaXaXaXaXaXaXaXaXaXaX+Xl l l l l l l l l l l l l H d ",
"    & h h h h h h h h h h h h h g                                     ).aXaXaXpXaXaXaXaXaXaXaXaX#X] ] ] ] ] ] ] ] ] ] ] ] ] ] + ",
"    & h h n S u.C F h h j c c k g                                     ).aX@XQ.^ }.I.aXaXaX_._.#X#X] ] ] J J J ' ] ] J J J ] ] % ",
"    & h F n.kXqXsXu.F h k | | k g                                     ).aXI.Q.Q.>X|.I.aX@XW.W.@X+X] ] J 3X.XjXH ] J .X.X3XJ ] = ",
"    & h v qXb.t.n.9Xb j x Y c k g                                     ).aXS L.S ^ L.^ aXJ.J.XX,X+X] ] J .Xo..XH ] J .Xo..XJ ] = ",
"    & h V MXMXMXMXMXv j x x j h d > > > > > > > > > > > > > > $       ).aX|.hXhXhXhXI.aXP.P.@XaX+X] 0 0 0 0 0 0 0 0 0 0 0 0 0 ; ",
"    & h V MXMXMXMXMXv h j j h h d 7 9.9.9.9.9.9.9.9.9.9.9.9.9.@       ).aX|.hXhXhXhXI.aXaXaXaXaX+XH ` ) Y.E.E.E.E.Y.) ) ) ) ) ) ",
"    & h V MXMXMXMXMXv h h h h h g ;.q.rX X X XgXN.N.N.N.N.N.N..       ).aX|.hXhXhXhXI.aXaXaXaXaX+Xl H %XfX7X7X7XgX&XY.Y.Y.Y.Y.Y.",
"O O * F m rXrXiXyXiXZ h h h h h g ;.8.'.h h h  XN.q.~.K.K.V.q.5 5 5 5 H.^.^ ^ ^ I.^ S aXaXaXaXaX#X] X.Y.>X6X6X6X7X&XP _.7X7X5X%X",
"M.M.B.B.M Q E E Q E D h h h h h F a.9.'.h h h  X8.m.].h h b.9.r.r.r.r.k.k.P.Q.Q.Q.U.Q.aXaXaXaXaX#X] X.( &X6X6X6X7X>X%X>X6X6X>X) ",
"x.x.x.N h h h h h h g b v n h h F 0.,.'.h h h  Xq.N.].h h b.m.{ } } } } O.,XaXaXaXaXXXU.J.U.#XaX#X] X.( &X=X=X=X=X%XY.:X6X6X>X) ",
"N.N.N.Q Y c h h h m `.nXwXsXB h F a.N.i.q q 8 e a.-.K h h A.N. .@.@.@.@.[ J.XXaXaX).P.bX'.lXS #X#X] X.Y.) W _ E W Y.W _.6X6X>XY.",
":XqXZ.J.| T h h g `.9XkXwX9XsXb F a.N.b.v 9 q C N.N.~.K K A.N.$.^.`.&XR [ J.XXaXaX(.iX)././.lXU.+X] X.Y.Y.) _ _ ( E.Y.%X>X>X&XY.",
"+.:XF.S x x k j b !.9Xt.1.!.9Xw F a.N.i.e.e.e.u.M.N.N.N.N.N.N.*Xh.^.R.U +.@XOXOX,XA P.P.G.P.P.G.+X] X.Y.( P W W P ( Y.Y.Y.Y.Y.Y.",
";X>XZ.C h k x z m xXMXMXMXMXMXf.F a.N.m.m.m.m.m.N.N.N.N.m.m.N.$.^.`.`. .&.,XW.W.,X).bXbXbXbXbXU.+X' X.Y.Y.Y.Y.Y.&X>X>X>X5X%X%XY.",
"+.(.N.C c T Y k m xXMXMXMXMXMXf.F a.m.-.q.8.8.sX[.[.[.yX,.,.N.O.h.^.R.@.+.J.J.).,X).bXbXbXbXbXU.+Xk H Y.&X%X( P >X6X6X6XjXY.Y.Y.",
":X9XN.C Y | Y h m xXMXMXMXMXMXf.F a.,.8.M.q.8.'.h h h eX8.-.N.%.*X*X*X@.+.J.J.#XaX).bXbXbXbXbXU.+XJ ` W P Y.Y.%X5X6X6X6XjX) W ) ",
"B.N.N.C k k k h m xXMXMXMXMXMXf.F a.a.m.N.a.,.r.q q q i.N.N.N.=X=X-X@.@.&.aXaXaXpX).lXlXlXlXlXU.+X] X.Y.Y.Y.) Y.L W L 0 W ) Y.Y.",
"F.N.N.C j z z h C W.W.R.^.R.R.G.Z i.b.v.v.e e J.v 9 b b.B.B.N.j.h.=X@.@.&.).W.OX#XS S ^ ^ S S ^ ..J ' / _ _ / E E _ _ W E.) ) Y.",
"F.N.N.C k x x j m Z A y y.y y A D 3XgXMX1X4X1XMXgXMXMXjX4X8XMXMX`.6X@.@.&.).W.OXpXI.I.I.I.I.I.K.- M ~ p - - s ~ N ~ ~ ~ u - N ~ ",
"F.N.N.C h k k h h h h h h h h h o.gXgX4X;X1X;X8XgXvXjX2X;XgXvXjX_.=X@.@.&.aXaXaXaXaXaXaXaXaXaX..s M M p u i p M N N N M u s N N ",
"F.N.N.C h h n v n h h h h h h h 3XMXMX;X4X4X1X1XMXMXvX4X1XMXMXgX4X-X@.@.&.aX).P.P.XXaXaXaXaX<X~ ~ ~ s - - i - p ~ ~ ~ i - N ~ ~ ",
"S.S.B.C h w rXqXlXw h h h h h G ;X;X;X8XgX;X;X1XgXgX2X4X;X;X;X4X1X=X_.*X&.).P.iXdXP.).aXaX@X/ p p f M M M i d M N N H M d p p f ",
"|  .A.C n sXqX!.9XlXb h h h h o.1X1X1XvXvX1X1XgXvXvXgXjX1X1X;XvX4X1Xc.*X&.P.'.S G.rXP.aX,XOXs u u f ~ N H u i N ~ ~ N ~ p u u p ",
" .+.A.C m 9XqX9XqXqXv h h h h h 6 6 6 6 6 6 6 6 6 6 -.6 6 6 6 6 6 x.^.*X&.'.dXdXdXdXU.aXXXJ.J.z.h.g.k.k.g.h.h.h.k.k.k.k.k.k.k.h.",
"|  .A.C m xXMXMXMXMXV h z c x h 6 t.].].<.6 6 6 6 6 !.!.!.!.!.!.1.c.^.=X&.@XbXbXbXbX(.aXXXJ.P.z.h.P 7X7Xt h.h.h.^ :XL.:XL.:X^ h.",
"A.A.B.C m xXMXMXMXMXV h Y | Y h 6 u.h G 1.6 6 6 6 6 [.h o.h o.h t.O.#.#.&.@XbXbXbXbX).,X_._.,Xz.h.Q hXhXt h.h.h.Q.hX|.hX|.hXQ.h.",
"N.N.N.C m dXcXcXcXcXV k c Y x h 6 u.{.{.1.6 6 6 6 6 [.h o.h o.h t.{  . .&.).,XiXiX,XP.,XW.W.,Xz.h.y |.|.t h.h.h.Q.hX|.hX|.hXQ.h.",
"N.D.F.C H c.L.H.c._ G.j z z h h 6 u.h G 1.6 6 6 6 6  XG {.G {.G t.{ R R +.^ S S ^ S S pXOXOX,Xz.h.Q hXhXt h.h.h.y Q A Q Q Q y h.",
"Z.tXZ.C g n n n n n n h h h h h 6 u.G J 1.6 6 6 6 6 t.t.t.t.t.t.<.{ I R &.aXaXaXaXaXaXaXaXaXaXz.h.y |.|.t h.t t t t g.h.h.h.h.h.",
"N.N.N.C h h h h h h h h h h h h 6 u.G J 1.6 $X[.[.!.6 6 6 6 6 6 6 { @.@.&.aXaXaXaXaXaXaXaXaXaXz.h.Q hXhXt h.H.dX/.'.g.h.h.h.h.h.",
"N.N.N.C h h h h h h h h h h h h 6 u.h G 1.6 [.h h n.6 6 6 6 6 6 6 { @.@.&.aXaXaXaXaXaXaXaXaXaXz.h.y :X:Xt h.P.zX'.rXg.h.h.h.h.h.",
"N.N.N.C h h h h h h h h h h h h 6 r.!.!.<.6 [.h h n.6 6 6 6 6 6 6 { @.@.&.aXaXaXpXaXaXaXaXaXaXz.h.g.k.k.g.h.G.'.G.P.k.h.h.h.h.h.",
"N.N.N.C h h h h h h h h h h h h -.-.6 -.6 6 [.h h n.6 6 6 6 6 6 6 { @.@.&.aXaXaXaXaXaXaXaXaXaXz.h.h.h.h.h.h.P.zX'.rXg.h.h.h.h.h.",
"c.c.c.! h h h h h h h h h h h h -.-.-.-.6 6 [.h h n.6 6 6 6 6 6 6 t P P P '.,X,X,X,X,X,X,X,X,Xz.h.h.h.h.h.h.P.zX'.rXk.h.h.h.h.h.",
"M.M.B.B.` ` ` ` ` ` ` ` ` ` ` ` 8 8 -.-.-.-.oXK K n.-.-.-.-.-.-.-.2.2.2.2.p.p.p.p.p.p.H.G.G.G.l.l.y.y.t t t y f.A A y.y.y.y.y.2."
};
