/* XPM */
static char *_7b09705574d4721b8bb86d1aa7bd9d5Tr0lk6KSSiI56CyM[] = {
/* columns rows colors chars-per-pixel */
"64 64 103 2 ",
"   c #3C3B37",
".  c #3D3C38",
"X  c #403F3B",
"o  c #43423D",
"O  c #474641",
"+  c #484742",
"@  c #4B4A45",
"#  c #4F4E49",
"$  c #514F4A",
"%  c #53514C",
"&  c #58554F",
"*  c #575550",
"=  c #595751",
"-  c #5D5B56",
";  c #5F5D58",
":  c #615E59",
">  c #64625B",
",  c #68665F",
"<  c #6A6760",
"1  c #6C6A63",
"2  c #706D66",
"3  c #726F68",
"4  c #75726B",
"5  c #79766E",
"6  c #7A7770",
"7  c #7D7A72",
"8  c #817E76",
"9  c #838077",
"0  c #85827A",
"q  c #89867E",
"w  c #8B887F",
"e  c #8D8A82",
"r  c #918D84",
"t  c #949087",
"y  c #969289",
"u  c #99968E",
"i  c #9C998E",
"p  c #9C9A92",
"a  c #A19E94",
"s  c #A5A196",
"d  c #A6A39A",
"f  c #A9A59B",
"g  c #ADA99E",
"h  c #AEACA1",
"j  c #B1AEA2",
"k  c #B1AFA9",
"l  c #B4B1A5",
"z  c #B8B4A7",
"x  c #B5B3AA",
"c  c #B9B6AA",
"v  c #BCB9AE",
"b  c #B6B6B6",
"n  c #BEBDB2",
"m  c #BBBBBB",
"M  c #C1BEB2",
"N  c #C5C2B6",
"B  c #C5C3BA",
"V  c #C9C6BA",
"C  c #CDCBBE",
"Z  c #C4C4C4",
"A  c #CFCDC1",
"S  c #CCCCCC",
"D  c #D1CDC2",
"F  c #D2CFC8",
"G  c #D3D0C5",
"H  c #D7D3C8",
"J  c #D6D5C9",
"K  c #DAD7CB",
"L  c #DBD7CC",
"P  c #DBD8CC",
"I  c #DDD9CE",
"U  c #D4D4D4",
"Y  c #DDDAD1",
"T  c #DFDCD3",
"R  c gainsboro",
"E  c #E1DED4",
"W  c #E2DFD7",
"Q  c #E3E1D8",
"!  c #E4E1D9",
"~  c #E4E3D8",
"^  c #E5E3DB",
"/  c #E7E5DD",
"(  c #E9E6DF",
")  c #E9E9DE",
"_  c #E5E5E2",
"`  c #EBEAE2",
"'  c #EEEDE7",
"]  c #EDEDE9",
"[  c #EFEEE9",
"{  c #F1EFEA",
"}  c #F0EFEC",
"|  c #EFF0E8",
" . c #F1F0EB",
".. c #F1F0ED",
"X. c #F3F3EF",
"o. c #F4F3F0",
"O. c #F5F4F0",
"+. c #F6F6F6",
"@. c #F8F7F6",
"#. c #F9F8F6",
"$. c #FBFBF9",
"%. c #FCFCFB",
"&. c white",
/* pixels */
"&.&.&.&.&.&.&.&.&.&.&.&.&.&.&.&.&.&.&.&.&.&.&.&.&.&.&.&.&.&.&.&.&.&.&.&.&.&.&.&.&.&.&.&.&.&.&.&.&.&.&.&.&.&.&.&.&.&.&.&.&.&.&.&.",
"&.&.&.&.&.&.&.&.&.&.&.&.&.&.&.&.&.&.&.&.&.&.&.&.&.&.&.&.&.&.&.&.&.&.&.&.&.&.&.&.&.&.&.&.&.&.&.&.&.&.&.&.&.&.&.&.&.&.&.&.&.&.&.&.",
"&.&.&.&.&.&.&.&.&.&.&.&.&.&.&.&.&.&.&.&.&.&.&.&.&.&.&.&.&.&.&.&.&.&.&.&.&.&.&.&.&.&.&.&.&.&.&.&.&.&.&.&.&.&.&.&.&.&.&.&.&.&.&.&.",
"&.&.&.&.&.&.&.&.&.&.&.&.&.&.&.&.&.&.&.&.&.&.&.&.&.&.&.&.&.&.&.&.&.&.&.&.&.&.&.&.&.&.&.&.&.&.&.&.&.&.&.&.&.&.&.&.&.&.&.&.&.&.&.&.",
"&.&.&.&.&.&.&.&.&.&.&.&.&.&.&.&.&.&.&.&.&.&.&.&.&.&.&.&.&.&.&.&.O.#.&.&.&.&.&.&.&.&.&.&.&.&.&.&.&.&.&.&.&.&.&.&.&.&.&.&.&.&.&.&.",
"&.&.&.&.&.&.&.&.&.&.&.&.&.&.&.&.&.&.&.&.&.&.&.&.&.&.&.&.&.&.O.! c N ( #.&.&.&.&.&.&.&.&.&.&.&.&.&.&.&.&.&.&.&.&.&.&.&.&.&.&.&.&.",
"&.&.&.&.&.&.&.&.&.&.&.&.&.&.&.&.&.&.&.&.&.&.&.&.&.&.&.&.o.W c f l v z V / #.&.&.&.&.&.&.&.&.&.&.&.&.&.&.&.&.&.&.&.&.&.&.&.&.&.&.",
"&.&.&.&.&.&.&.&.&.&.&.&.&.&.&.&.&.&.&.&.&.&.&.&.&.&.O.T v d z V D D D N z V ! @.&.&.&.&.&.&.&.&.&.&.&.&.&.&.&.&.&.&.&.&.&.&.&.&.",
"&.&.&.&.&.&.&.&.&.&.&.&.&.&.&.&.&.&.&.&.&.&.&.&.X.Y v s z V C N C V N D D N l V ! O.&.&.&.&.&.&.&.&.&.&.&.&.&.&.&.&.&.&.&.&.&.&.",
"&.&.&.&.&.&.&.&.&.&.&.&.&.&.&.&.&.&.&.&.&.&.X.Y z s z V C N C L I I K V N D D N z B ! O.&.&.&.&.&.&.&.&.&.&.&.&.&.&.&.&.&.&.&.&.",
"&.&.&.&.&.&.&.&.&.&.&.&.&.&.&.&.&.&.&.&. .Y l f z V V N C L I I I I I I K C N C D N z N ! O.&.&.&.&.&.&.&.&.&.&.&.&.&.&.&.&.&.&.",
"&.&.&.&.&.&.&.&.&.&.&.&.&.&.&.&.&.&.{ P j f c V V N A P I I I I I I I I I I K C N C D B z N Q O.&.&.&.&.&.&.&.&.&.&.&.&.&.&.&.&.",
"&.&.&.&.&.&.&.&.&.&.&.&.&.&.&.&. .K l f v V V N D I I I I I I I I I I I I I I I L C N C D V z N W O.&.&.&.&.&.&.&.&.&.&.&.&.&.&.",
"&.&.&.&.&.&.&.&.&.&.&.&.&.&. .G l s v V V N D I G G K I I L K I H K I G G H G K G K I C N C D V l N T O.&.&.&.&.&.&.&.&.&.&.&.&.",
"&.&.&.&.&.&.&.&.&.&.&.&.{ G l f v V B N D I I K - ; % v I t r I u @ V q 1 0 O a & h I I I C N C D V l M T X.&.&.&.&.&.&.&.&.&.&.",
"&.&.&.&.&.&.&.&.&.&.' G j f n V N N G I I I I I 7 4 * j I > = I G = & c t h $ 1 C I I I I I I D N V D V z v T X.&.&.&.&.&.&.&.&.",
"&.&.&.&.&.&.&.&.' D g f M V N N G I I I I I I I 7 3 , u l - . n G u 5 $ y h @ O z I I I I I I I I D N V D V z v Y X.&.&.&.&.&.&.",
"&.&.&.&.&.%.' D g g M V N V H I I I I I I I I L 1 4 1 q , M 4 4 z 7 G > u p $ y # V I I I I I I I I I G N V D V z n L X.&.&.&.&.",
"&.&.&.$.' C g g M C V V K I I I I I I I I I I L h g v A g V l g l g G D M c g V j v I I I I I I I I I I I G V C G C z M K X.&.&.",
"&.&.[ V g g N D K D G D A D D D D D D D D D D D D D D D D D D D D D D D D D D D D D D D D D D D D D D D D A D D G K K C z v K $.",
"&.&.$.g N G K L K G D C C C C C C C C C C C C C C C C C C C C C C C C C C C C C C C C C C C C C C C C C C C C D K L L L K C F &.",
"&.&.&.F G K L L L K K K K K K K K K K K K K K K K K K K K K K K K K K K K K K K K K K K K K K K K K K K K K K K K K L L L K X.&.",
"&.&.&.+.} _ G G G G G G G G G G G G G G G G G G G G G G G G G G G G G G G G G G G G G G G G G G G G G G G G G G G G G P X.X.&.&.",
"&.&.&.&.&.&.D C C C C C C C C C C C C C C C C C C C C C C C C C C C C C C C C C C C C C C C C C C C C C C C C C C C A &.&.&.&.&.",
"&.&.&.&.&.+.L W Q ! ! ! ! ! ! ! ! ! ! ! ! ! ! ! ! ! ! ! ! ! ! ! ! ! ! ! ! ! ! ! ! ! ! ! ! ! ! ! ! ! ! ! ! ! ! ! Q Q Q [ &.&.&.&.",
"&.&.&.&.&.#.X.X.V v n n n n v p 1 1 1 1 1 4 z v n n n n v t 1 1 1 1 1 7 v v n n n v v q 1 1 1 1 1 6 v v n n n v n ! X.X.&.&.&.&.",
"&.&.&.&.&.&.&._ V V C J J V C N +   . . X 0 V V C J G V C n . . . X . u V V D J G V C z . . X . . p V V D J G V C D &.&.&.&.&.&.",
"&.&.&.&.&.&.&.` A D V C V V D N o   . o + 9 A D V C V C D v     o + @ t D A V C V C D h . o + + o t D A V C V C D J &.&.&.&.&.&.",
"&.&.&.&.&.&.&.&.! D K V z f a ; . . o # & - t D J V l f u % . X @ = = - a G J N j d t @ o # & = % + y G J N j f N @.&.&.&.&.&.&.",
"&.&.&.&.&.&.&.&.&.` P C z i 4 . . O % : , , 3 ) P V l u > . o % : > , > q ) J N j t - + % ; > > : = 4 / J N j t B &.&.&.&.&.&.&.",
"&.&.&.&.&.&.&.&.&. .T D l t 3 . . # - 1 3 2 5  .I C j r > . @ ; 1 1 1 1 e  .P V h r ; $ ; , 1 1 < , 7 | P V h e B &.&.&.&.&.&.&.",
"&.&.&.&.&.&.&.&.&. .T D l t 3 . . # ; 1 4 4 7  .I C j r > . @ : 1 4 4 3 r  .P V h r ; % : 1 1 2 1 1 9  .P V h e B &.&.&.&.&.&.&.",
"&.&.&.&.&.&.&.&.&. .T D l t 3 . . # ; 2 6 5 8  .I C j r > . @ : 4 5 4 4 t  .P V h r ; % > 2 4 4 3 2 0 | P V h e B &.&.&.&.&.&.&.",
"&.&.&.&.&.&.&.&.&. .T D l t 3 . . # ; 4 7 7 9  .I C j r > . @ : 4 7 6 5 y  .P V h r ; % > 4 4 4 4 4 q | P V h e B &.&.&.&.&.&.&.",
"&.&.&.&.&.&.&.&.&. .T D l t 3 . . # ; 4 8 8 0  .I C j r > . @ > 5 7 7 7 u  .P V h r ; % > 4 5 5 5 4 q [ P V h e B &.&.&.&.&.&.&.",
"&.&.&.&.&.&.&.&.&. .T D l t 3 . . # ; 4 0 8 q  .I C j r > . @ > 5 8 8 7 u  .P V h r ; % > 4 6 7 6 4 e [ P V h e B &.&.&.&.&.&.&.",
"&.&.&.&.&.&.&.&.&. .T D l t 3 . . # ; 5 0 0 q  .I C j r > . @ > 6 9 8 8 p  .P V h r ; % , 5 7 7 7 5 e [ P V h e B &.&.&.&.&.&.&.",
"&.&.&.&.&.&.&.&.&. .T D l t 3 . . # : 5 0 0 e  .I C j r > . @ > 7 0 9 8 p  .P V h r ; % , 6 7 7 7 6 e [ P V h e B &.&.&.&.&.&.&.",
"&.&.&.&.&.&.&.&.&. .T D l t 3 . . # : 5 q 0 e  .I C j r > . @ > 7 0 0 8 p  .P V h r ; % , 6 7 7 7 6 e [ P V h e B &.&.&.&.&.&.&.",
"&.&.&.&.&.&.&.&.&. .T D l t 3 . . # : 5 0 0 w  .I C j r > . @ > 7 0 9 8 p  .P V h r ; % , 6 7 7 7 6 e [ P V h e B &.&.&.&.&.&.&.",
"&.&.&.&.&.&.&.&.&. .T D l t 3 . . # ; 5 0 9 q  .I C j r > . @ > 6 9 8 8 p  .P V g r ; % , 5 7 7 7 5 e [ P V h e B &.&.&.&.&.&.&.",
"&.&.&.&.&.&.&.&.&. .T D l t 3 . . # ; 5 0 8 q  .I C j r > . @ > 5 8 8 7 u  .P V h r ; % > 5 7 7 6 4 e [ P V h e B &.&.&.&.&.&.&.",
"&.&.&.&.&.&.&.&.&. .T D l t 3 . . # ; 4 8 8 0  .I C j r > . @ > 5 7 7 7 u  .P V h r ; % > 4 5 5 5 4 q [ P V h e B &.&.&.&.&.&.&.",
"&.&.&.&.&.&.&.&.&. .T D l t 3 . . # ; 4 7 7 9  .I C j r > . @ : 4 7 6 5 y  .P V h r ; % > 4 4 4 4 4 q | P V h e B &.&.&.&.&.&.&.",
"&.&.&.&.&.&.&.&.&. .T D l t 3 . . # ; 2 7 5 8  .I C j r > . @ : 4 5 5 4 t  .P V h r ; % > 2 4 4 4 2 0 | P V h e B &.&.&.&.&.&.&.",
"&.&.&.&.&.&.&.&.&. .T D l t 3 . . # ; 1 5 4 7  .I C j r > . @ : 2 4 4 3 r  .P V h r ; % : 1 2 2 1 1 9  .P V h e B &.&.&.&.&.&.&.",
"&.&.&.&.&.&.&.&.&.` I C l i 4 . . # - 1 4 2 5 ` P V l u > . @ ; 1 2 1 1 e ) K N j t ; $ : , 1 1 1 , 8 ) K N j t B &.&.&.&.&.&.&.",
"&.&.&.&.&.&.&.&.$./ K V z a 7 o . @ = > 1 1 t ! J N l i 3 o O = > 1 < < f ! G N l u 1 @ - > , , > : p ! G N l i k $.&.&.&.&.&.&.",
"&.&.&.&.&.&.&.&. .Q J V z f r =   o % ; > > J Q G N z s e @ . $ ; > > < ) T G N l a e @ & ; : : : ; ) T G N l a e [ &.&.&.&.&.&.",
"&.&.&.&.&.&.&.&. .Q J V z d r =   X % - : - J Q G N z s e @ . # - ; ; > ) T G N l a e @ % - - - = * ) T G N l a e [ &.&.&.&.&.&.",
"&.&.&.&.&.&.&.$.H D C V N M v i   . @ = - 2 A D C V N M v e . + * = = 5 G D C V N M v 7 @ * & % % 1 D A C V N M v _ &.&.&.&.&.&.",
"&.&.&.&.&.&.&.[ D D D D D D D C # $ & > , r D D D D D D D N $ % ; > : p D D D D D D D l % : : - = u D D D D D D D T &.&.&.&.&.&.",
"&.&.&.&.&.&.#.I I I I I I I I I I I I I I I I I I I I I I I I I I I I I I I I I I I I I I I I I I I I I I I I I I I ` &.&.&.&.&.",
"&.&.&.&.&.#.` C C C C C C C C C C C C C C C C C C C C C C C C C C C C C C C C C C C C C C C C C C C C C C C C C C C P X.&.&.&.&.",
"&.&.&.&.&.[ K K K K K K K K K K K K K K K K K K K K K K K K K K K K K K K K K K K K K K K K K K K K K K K K K K K K K Y &.&.&.&.",
"&.&.&.o.( Y D D D D D D D D D D D D D D D D D D D D D D D D D D D D D D D D D D D D D D D D D D D D D D D D D D D D D D ( ` &.&.",
"&.&.&.[ I I I I I I I I I I I I I I I I I I I I I I I I I I I I I I I I I I I I I I I I I I I I I I I I I I I I I I I I I E &.&.",
"&.&.&._ B M n n c c l x j h h h g g d d s a p p p p p u u u u u u u u u u u p p p p p a a s d f g h h h j x l c c n n n B A &.&.",
"&.&.&.&.&.+.o.[ [ [ _ _ R R R U U S S S Z Z Z m m m m m b b b b b b b b b m m m m m Z Z Z S S S U U U R R _ _ [ [ [ X.o.$.&.&.&.",
"&.&.&.&.&.&.&.&.&.&.&.&.&.&.&.&.&.&.&.&.$.$.$.$.$.+.+.+.+.+.+.+.+.+.+.+.+.+.+.+.$.$.$.$.$.&.&.&.&.&.&.&.&.&.&.&.&.&.&.&.&.&.&.&.",
"&.&.&.&.&.&.&.&.&.&.&.&.&.&.&.&.&.&.&.&.&.&.&.&.&.&.&.&.&.&.&.&.&.&.&.&.&.&.&.&.&.&.&.&.&.&.&.&.&.&.&.&.&.&.&.&.&.&.&.&.&.&.&.&.",
"&.&.&.&.&.&.&.&.&.&.&.&.&.&.&.&.&.&.&.&.&.&.&.&.&.&.&.&.&.&.&.&.&.&.&.&.&.&.&.&.&.&.&.&.&.&.&.&.&.&.&.&.&.&.&.&.&.&.&.&.&.&.&.&.",
"&.&.&.&.&.&.&.&.&.&.&.&.&.&.&.&.&.&.&.&.&.&.&.&.&.&.&.&.&.&.&.&.&.&.&.&.&.&.&.&.&.&.&.&.&.&.&.&.&.&.&.&.&.&.&.&.&.&.&.&.&.&.&.&.",
"&.&.&.&.&.&.&.&.&.&.&.&.&.&.&.&.&.&.&.&.&.&.&.&.&.&.&.&.&.&.&.&.&.&.&.&.&.&.&.&.&.&.&.&.&.&.&.&.&.&.&.&.&.&.&.&.&.&.&.&.&.&.&.&."
};
