/* XPM */
static char *c336687b9240461eebb0cb1f72f4d742KB9Jl6kezkm16dh6[] = {
/* columns rows colors chars-per-pixel */
"64 64 208 2 ",
"   c None",
".  c #14191B",
"X  c #1B2826",
"o  c #1E312F",
"O  c #212426",
"+  c #242529",
"@  c #262B2D",
"#  c #2B2B2D",
"$  c #27312F",
"%  c #252F31",
"&  c #2D2D32",
"*  c #312F34",
"=  c #382F30",
"-  c #253132",
";  c #2C3335",
":  c #2F3837",
">  c #2E3638",
",  c #2F393A",
"<  c #323336",
"1  c #323639",
"2  c #39363B",
"3  c #333A3B",
"4  c #3A3B3E",
"5  c #3C3332",
"6  c #403738",
"7  c #373F41",
"8  c #3A3E41",
"9  c #403D43",
"0  c #3B4244",
"q  c #3E4847",
"w  c #3C4A4B",
"e  c #344847",
"r  c #414145",
"t  c #434449",
"y  c #434C4E",
"u  c #4A4A4C",
"i  c #534B4C",
"p  c #47514F",
"a  c #4A504E",
"s  c #454E51",
"d  c #4A4E51",
"f  c #475153",
"g  c #4A5355",
"h  c #4C5759",
"j  c #4C5A55",
"k  c #525356",
"l  c #53565A",
"z  c #545A5C",
"x  c #5A5E5D",
"c  c #585754",
"v  c #5E554F",
"b  c #794D58",
"n  c #655859",
"m  c #745359",
"M  c #58605A",
"N  c #5E5D62",
"B  c #6B5C61",
"V  c #5C6A65",
"C  c #5C6465",
"Z  c #66696E",
"A  c #66666A",
"S  c #6E7975",
"D  c #797A7D",
"F  c #747779",
"G  c #6B6E71",
"H  c #893B47",
"J  c #8B3B51",
"K  c #9E394E",
"L  c #A63B4B",
"P  c #A33F57",
"I  c #8E4149",
"U  c #884A57",
"Y  c #9A4455",
"T  c #AB4B5A",
"R  c #B2505C",
"E  c #B74E5D",
"W  c #80635F",
"Q  c #8B5C66",
"!  c #AE5B6C",
"~  c #A85F63",
"^  c #B2536A",
"/  c #B25768",
"(  c #B25F71",
")  c #A64860",
"_  c #826567",
"`  c #886D72",
"'  c #8E797E",
"]  c #91757C",
"[  c #95787D",
"{  c #B56873",
"}  c #AE747A",
"|  c #A76A71",
" . c #73837C",
".. c #79867F",
"X. c #7B7C81",
"o. c #B17582",
"O. c #858C8A",
"+. c #97858A",
"@. c #8D8D92",
"#. c #878E91",
"$. c #8B9294",
"%. c #8D9996",
"&. c #939A9C",
"*. c #9B9C9D",
"=. c #949596",
"-. c #A08D8F",
";. c #B98C91",
":. c #A5989A",
">. c #BD9E9C",
",. c #BF9194",
"<. c #969EA1",
"1. c #9B9DA2",
"2. c #AB9CA3",
"3. c #BD9FA0",
"4. c #9DA3A6",
"5. c #9EA8A9",
"6. c #A2A6AA",
"7. c #A4A8AB",
"8. c #ABAAAD",
"9. c #A9A5A8",
"0. c #B5ACA9",
"q. c #ABAEB2",
"w. c #B4AEB3",
"e. c #AFB7B8",
"r. c #B4B6BB",
"t. c #B5BBBD",
"y. c #B9B4B5",
"u. c #D2838D",
"i. c #C38B94",
"p. c #CC9396",
"a. c #DC929A",
"s. c #C29BA0",
"d. c #C3A6A5",
"f. c #C6A6A9",
"g. c #C3B6B7",
"h. c #D9BCBE",
"j. c #D4B6B6",
"k. c #C9B0AC",
"l. c #E1BABD",
"z. c #BABEC2",
"x. c #B7BCC0",
"c. c #C5BEC3",
"v. c #D7BBC0",
"b. c #DABCC3",
"n. c #DBB5C0",
"m. c #E5BEC0",
"M. c #AEC2C1",
"N. c #BCC3C4",
"B. c #BCCACA",
"V. c #BAC5C6",
"C. c #BCD3D1",
"Z. c #C3C2C5",
"A. c #CBC1C6",
"S. c #CCCBC5",
"D. c #C3C6CA",
"F. c #C5CACE",
"G. c #CBCBCD",
"H. c #C7C8CA",
"J. c #D4C3C6",
"K. c #D5C6CB",
"L. c #DAC5CA",
"P. c #D4CDCD",
"I. c #DFCDCB",
"U. c #C7D0CD",
"Y. c #D4D2CD",
"T. c #DBD4CC",
"R. c #C6CDD1",
"E. c #CACED2",
"W. c #D3CDD3",
"Q. c #C5D1D4",
"!. c #CBD1D5",
"~. c #CFD4D8",
"^. c #CDD5D9",
"/. c #CDD4D9",
"(. c #CFD9DA",
"). c #CCDBDA",
"_. c #C9D6D7",
"`. c #D2D2D5",
"'. c #D4D9D5",
"]. c #DBDDD7",
"[. c #D2D5DA",
"{. c #DDD4D9",
"}. c #D6DADD",
"|. c #D4DADD",
" X c #DADADE",
".X c #D9DEDD",
"XX c #DCDBDC",
"oX c #D9D4D4",
"OX c #E1CBCA",
"+X c #EAC5CC",
"@X c #EBCED3",
"#X c #E4DCD3",
"$X c #E2DBDC",
"%X c #E7D7D8",
"&X c #F3DDDD",
"*X c #D4E1DA",
"=X c #D7DCE0",
"-X c #D9DEE1",
";X c #D9DDE2",
":X c #F6DCE0",
">X c #DCE1E3",
",X c #E9E3E1",
"<X c #E8E8E8",
"1X c #F9EFEE",
"2X c #F6FBFD",
"3X c #FAFEFF",
"4X c #F8F3F7",
"5X c #F9F1F1",
/* pixels */
"                                                                                                                                ",
"                                              2X2X2X2X                                                                          ",
"                            =X X.X.X>X>X>X=X;X X>X>X XXX,XOX&X:X&X&XOX&XXXXX>X>X;X;X;X;X>X>X.X.X}.}..X,X                        ",
"                          }.}.|.(.).|.|.|.(.(.|.!.[. X$XK.+.` _ _ ` +.K.$X X[.!.|.(.(.|.|.|.).(.|.[.}.}. X                      ",
"                          F.D.V.B.B.B.B.B.B.B.D.F.F.Z.A.g.' ] [ ] ] ' g.c.D.F.F.D.B.B.B.B.B.B.B.V.D.F.D.E.                      ",
"                        !.!./.!.Q.Q.Q.Q.Q.Q.!.!.!.!.E.W.{.J.L.L.L.L.J.{.W.!.!.!.!.!.Q.Q.R.Q.Q.Q.~.!.!.F.G.                      ",
"                        E.E.!.E.!.R.F.F.E.!.!.!.E.R.E.G.W.W.W.A.A.W.W.E.E.E.E.!.!.!.!.E.F.F.R.!.E.E.Q.E.G.}.                    ",
"                        !.F.!.!.!.E.G.G.E.E.!.R.!.R.!.!.E.!.E.H.H.G.!.E.!._.R./.R.!.E.E.G.G.E.!.!.E.!.E.E.E.                    ",
"                        F.E.!.E.E.E.E.E.E.E.E.!.R.Q.Q.Q.Q.R.E.E.F.E.Q.Q.Q.Q.Q.R.!.E.E.E.E.E.E.E.E.E.!.F.!.D.                    ",
"                      !.R.!.~.E.E.E.W.E.E.E.E.E.!.Q.Q.Q.Q.Q.R.E.E.Q.!.Q.!.!.!.!.E.E.E.E.E.E.E.E.!.!.!.E.E.D.                    ",
"                      G.R.E.!.R.R.!.!.E.E.E.E.R.Q.Q.Q.R.R.E.E.E.E.E.E.R.R.Q.!.Q.R.E.E.E.E.!.E.R.R.R.!.R.G.D.                    ",
"                      G.E.E.!.R.!.!.!.!.!.E.!.E.!.!.Q.Q.!.E.E.E.E.E.!.E.R.Q.!.!.E.!.E.!.!.!.!.!.E.R.E.R.F.F.                    ",
"                      E.E.!././.^./././././././.!.!.!.!./.[.`.`.E.`.[.!.!.!.!.!.[.[.[./././.^.^./.~.E.E.E.E.G.                  ",
"                      G.F.R.R.!.!.!.Q.Q.!.E.E.!.R.F.R.E.!.E.E.E.E.E.!.!.E.E.E.R.!.E.E.!.Q.Q.Q.!./.R.R.R.F.E.D.                  ",
"                    F.F.D.F.D.R.R.R.R.E.E.E.G.F.F.D.D.D.R.R.F.F.D.R.R.R.D.D.F.F.F.G.E.E.E.R.R.R.R.R.R.R.F.H.Z.                  ",
"                    Z.D.F.!.R.R.!.!.E.E.E.E.E.G.!.!.R.Q.!.!.!.E.R.Q.!.Q.R.R.!.!.G.E.E.E.E.E.!.!.R.E.R.E.D.Z.z.                  ",
"                  c.H.E.F./.E.E.F.E.!.!.E.E.E.!.!.!.!.!.E.E.E.E.E.E.E.R.E.!.!.E.!.E.E.E.!.!.E.F.E.R.!.R.E.H.Z.                  ",
"                  Z.E.!.R._.R.!.E.E.E.E.E.E.E.!.!.!.!.!.E.E.E.E.F.E.E.E.E.!.!.E.!.E.E.E.E.E.E.E.!.E.!.R.!.E.Z.                  ",
"                  D._.).Q.Q.Q._.!.E.F.F.E.E.!.!.!.!.!.!.!.E.E.F.F.E.!.!.!.!.!.E.!.!.E.E.F.F.E.!.!.E.!.Q.(.!.H.                  ",
"                  B.Q._.R.Q.Q.!.!.E.F.F.E.E.!.!.!.!.!.!.!.!.E.F.D.R.!.!.!.!.!.!.!.!.E.E.F.F.E.!.!.E.Q.Q.^.^.D.                  ",
"                  B.Q.Q.R.!.E.!.E.E.E.E.E.E.!.!.!.!.!.!.!.!.E.F.D.E.!.!.!.!.!.!.!.!.E.E.E.E.E.E.E.!.Q.R.Q.Q.B.Q.                ",
"                !.B.Q.Q.R.~.~.E.E.E.!.!.E.E.E.!.!.!.!.E.E.E.E.E.F.E.!.E.E.!.!.E.!.E.E.E.!.!.E.E.E.!.!.R.Q.Q.B.B.                ",
"                R.F.E.E.E.E.!.E.E.E.!.!.E.E.E.E.!.!.!.E.E.E.E.E.E.E.E.E.E.!.!.E.E.E.E.E.!.!.E.E.E.!.E.E.E.E.F.z.                ",
"    *.&.        D.H.W.W.E.E.E.R.E.!.!.!.!.E.E.E.!.!.!.E.E.E.E.!.E.E.E.E.E.!.!.E.E.E.E.!.!.!.!.E.D.!.E.E.W.W.H.r.        *.*.    ",
"Z.M p p G       N.G.G.G.R.Q.D.!.E.E.!.!.!.!.E.E.F.E.E.E.E.!.E.E.R.!.!.R.!.R.!.F.E.E.!.!.!.!.E.E./.D.Q.F.G.G.G.e.      A a g x S.",
"O.V V V A G D X.H.G.P.G.N.Q./.R.!.!.!.!.!.!.!.!.E.E.!.!.E.!.!.E.F.!.!.!.R.R.R.F.!.!.!.!.!.!.!.!.R._.Q.N.G.P.S.t.D F F N C Z M O.",
".. . .S D     ,Xg.L.OXK.G.D.R.}.E.E.E.E.E.E.E.E.R.F.E.!.F.E.!.E.!.E.E.E.E.!.E.E.E.E.E.E.E.E.E.E.|.D.B.U.K.I.J.y.      D S S  . .",
"S %.&.$.@.    1Xf.;.i.s.S.F.~.E.E.!.!.!.!.!.!.E.E.!.!.!.!.!.!.!.R.F./.E.[.!.E.F.E.!.!.!.!.!.!.!.R.!.U.S.>.,.;.0.      @.$.%.%.S ",
"+.9.8.7.&.    &X| ! Y H h.!.E.R.E.E.E.!.E.E.E.R.E.[.!.E.[.!.F.!.E.!.[.E.E.R.E.!.R.E.E.E.E.E.E.E.E.E.`.v.H Y / |       *.7.9.9.+.",
":.y.r.z.8.].oXk.{ R L H h.G.[.R.!.!.!.!.!.!.E.E.!.[.!.E.|.!.F.!.F.!.F.!.E.!.!.E.E.E.!.!.!.!.!.E.E.[.P.h.H L E { f.    8.Z.w.g.:.",
"e.-X`.W.w.i n W ~ R L I OX'.[.=X[.[.[.[.[.[.[.[.;X}.[.[.}.}.[.[.!.;X}.|.}.!.>X/.[.[.[.[.[.[.[.[.=X`.].OXI K R ~ _ v i 8.E.}.}.e.",
"N.`.<X<XG.5X  d.p.a.u.} J.E.`.[.E.E.E.E.E.!.!./.>XE.!.[.E./.}.!.!.}.E.4.4.$.!.|./.!.!.E.E.E.E.E.[.!.E.J.} u.a.p.d.    H.  <XQ.V.",
"  oXH.Z.E.    +.%X@X+Xb.W.!.Q.Q./.E.F.F.E.!.!.!.>XR.E.E.}.F.!.=X!.[.!.z $.F t./.E.!.!.E.R.F.E.!.!.E.!.W.b.+X@X%X-.      N.D.`.  ",
"            $X2.{.<X4X$XW.E.Q.^.E.E.E.R.E.E.E.!.>X/./.E.}.[.}.}.D.;XR.C z Z t.}.E.E.E.E.E.E.E.R.Q.!.E.G.{.4X<X{.2.              ",
"              0.}.'.oXW.[.E.R.E.E.E.!.!.E.E.E.!.|.[./.E.!.E.E.D.E.D.t.y > 0 r.!.!.E.E.E.!.!.!.R.Q.!.!.Q.E.'.!.'.0.              ",
"              =.'.'.XXG.E.!.[.E.E.E.!.!.E.R.R.E.!.!.E.!.!.E.!.!.F.E.!.7 ; 3 E.!.E.E.R.E.E.!.E.R.R./._.F.G.XX'.].=.              ",
"              :.$XS.Y.`.Q.F.R.R.E.E.Q.Q.E.E.E.E.E.E.D.E.E.F.E.E.F.E.D.A z Z E.R.R.R.E.E.E.E.E.E.D.B.F.~.`.P.S.].:.              ",
"              g.#X,X1XY.t.t.z.x.x.t.t.t.t.t.t.t.z.N.z.z.z.t.N.t.z.N.x.z.z.r.z.t.t.z.z.z.z.z.z.z.z.N.t.t.P.1X,XT.g.              ",
"              0.#X#X#XY.*XV.5.6.6.6.6.6.6.6.6.6.1.6.6.4.6.4.F.}.!.;X=X=X}.;X}.}.=X;X;X;X;X=X;X;X;X.X|.'.Y.&X#X#X0.              ",
"              >.j.m.m.h.`.&.g f f d d d d d d f l l g d d g 4.}.}.}.}.>X}.}.!.}.;X;X;X;X;X;X;X;X=X}.}.`.b.+Xl.j.>.              ",
"              i.{ ^ T U b.Z.5.M./.[.[.[.[.~.!.!.[.E.}.~.6.q.D.F.F.E.!.!.E.E.E.E.R.E.!.!.!.!.!.!.C.C.E.v.U ) ^ ( i.              ",
"              o.! ^ P J n.K.N.).2X2X2X2X2X2X2X2X3X2X2X2XN.N.F.!.E.E.!.E.E.!.!.!.E.E.E.!.!.!.!.Q.C.Q.W.n.J K ^ ! o.              ",
"              m b Q U b b.W.E.>X2X2X2X2X2X2X2X2X2X2X2X2XQ.Q.E.Q.E.E.E.E.E.!.!.E.E.E.E.E.!.!.E.R.R.!.`.K.b b Q b m               ",
"              5 5 v n n G.`.[.=X[.[.|.|.[.[.|.|.}.}.}.;X!.~.F.F.R.E.E.E.E.!.!.!.!.E.E.E.E.E.E.E.W.W.E.G.B n n = 6               ",
"              # $ j j x D.E.!.E.E.E.F.F.E.E.E.E.E.E.E.E.!.!.E.F.F.E.!.!.E.!.!.!.!.!.E.E.R.R.E.E.`.W.E.F.N k j $ #               ",
"              1 o e w g V.!.!.R.!.E.R.R.E.!.!.!.!.!.~.E.!.R.E.E.D.E.!.!.!.E.!.!.E.E.E.R.F.F.E.E.E.`.`.D.g w w o 1               ",
"              t - e y l D.`.~.!.E.E.R.R.E.E.E.E.E.!.!.E.!.E.E.E.F.E.!.!.!.!.!.!.!.!.E.E.E.E.E.!.E.E.~.D.l w e % t               ",
"              l - 0 t r *.1.&.1.<.<.<.<.<.<.<.<.<.<.&.<.<.4.&.&.&.<.<.<.<.<.<.<.<.<.&.&.<.<.<.&.4.&.1.*.t y e ; z               ",
"              G + 8 r r d d d z g g f f f g g g f f g g g f f h h g f g g g f f g g g f f f g g z d k d r 8 8 O Z               ",
"              X.+ & 2 9 u l z f f f f f f f g g f f g h g f f g g f f g h g f f g g f f f f f f f x k u 4 4 < # D               ",
"                # & * 2 k k f g f f f g g g f f h h h h g f f h g f f g h h h h f f g g g f f f f g g l 2 * * + O.              ",
"                O < 8 9 x g y f y y y y s s s y g f s s y y s f s y y y s f f g y y y y s s s s p y g l r 1 4 + &.              ",
"                + & 8 7 4 0 q 3 0 0 7 7 7 0 0 0 q 0 0 0 7 7 7 0 0 7 7 0 0 0 0 q 0 0 7 7 7 7 7 0 3 q 4 4 r 8 & + &.              ",
"                < < 1 3 ; > 3 1 ; ; ; ; ; ; 1 1 ; ; ; 1 1 > ; ; ; ; ; 1 1 > ; ; 1 1 ; ; ; ; ; ; 1 : > < 3 7 @ & &.              ",
"                ; ; O O X ; 3 q 7 7 7 7 7 0 0 0 7 7 0 r t 0 0 8 7 0 0 r 0 0 7 7 r 0 0 8 7 7 7 7 q 1 0 . . @ ; 7 &.              ",
"                7 7 1 ; 1 5.                                                                          3 1 ; 3 3 &.              ",
"                1 ; 1 1 > 4.                                                                          $ 1 > - 3 &.              ",
"                > > ; ; ; 4.                                                                          ; ; ; ; ; $.              ",
"                ; > % ; ; 6.                                                                          : ; - ; ; $.              ",
"                ; ; - , ; 4.                                                                          ; > % ; > &.              ",
"              7.; ; - ; + 4.                                                                          O % ; ; > #.              ",
"              q.& ; ; @ # 1.                                                                          @ % > ; % $.              ",
"                #.$.$.#.$.                                                                            $.#.$.$.#.                ",
"                                                                                                                                "
};
