/* XPM */
static char *_9d6f328360443def9e71f66c2ba61beSumtX7cDWAmVewvB[] = {
/* columns rows colors chars-per-pixel */
"64 64 177 2 ",
"   c None",
".  c #34342C",
"X  c #3A372E",
"o  c #39392F",
"O  c #3E3B35",
"+  c #3E3C38",
"@  c #413C36",
"#  c #403D39",
"$  c #444037",
"%  c #43423B",
"&  c #48453C",
"*  c #4E4A3F",
"=  c #444341",
"-  c #4A4742",
";  c #4D4B45",
":  c #4E4D49",
">  c #514E45",
",  c #514E49",
"<  c #545147",
"1  c #54524B",
"2  c #59564D",
"3  c #5C584F",
"4  c #565553",
"5  c #595651",
"6  c #5D5B54",
"7  c #5E5B58",
"8  c #605D56",
"9  c #625F59",
"0  c #636056",
"q  c #64615B",
"w  c #69665E",
"e  c #6C695E",
"r  c #666460",
"t  c #696761",
"y  c #6D6B64",
"u  c #6E6D69",
"i  c #716E66",
"p  c #736E69",
"a  c #747067",
"s  c #75726C",
"d  c #79756E",
"f  c #7B796E",
"g  c #7A7671",
"h  c #7D7A73",
"j  c #817E76",
"k  c #817E78",
"l  c #838176",
"z  c #85827A",
"x  c #89867E",
"c  c #8A887E",
"v  c #8D8B83",
"b  c #918E84",
"n  c #928F88",
"m  c #929186",
"M  c #95938A",
"N  c #99968D",
"B  c #9A988F",
"V  c #979390",
"C  c #999691",
"Z  c #9D9A92",
"A  c #A19E95",
"S  c #A19E98",
"D  c #A4A296",
"F  c #A5A39B",
"G  c #A9A69C",
"H  c #AAA99D",
"J  c #A7A4A2",
"K  c #A9A6A2",
"L  c #AEACA3",
"P  c #AEAEA9",
"I  c #B1AEA5",
"U  c #B3AFA9",
"Y  c #B3B1A6",
"T  c #B5B2A9",
"R  c #B9B6AD",
"E  c #BCB9AE",
"W  c #B6B7B1",
"Q  c #BBB6B0",
"!  c #BDBBB2",
"~  c #BDBCB9",
"^  c #C1BEB4",
"/  c #C1BCB9",
"(  c #C4C2B6",
")  c #C5C3BA",
"_  c #C9C6BB",
"`  c #CCCABE",
"'  c #D1CEBF",
"]  c #C6C5C1",
"[  c #CAC6C0",
"{  c #CECCC2",
"}  c #CBCBCB",
"|  c #D1CEC3",
" . c #D1CECB",
".. c #D3D0C1",
"X. c #D3D1C5",
"o. c #D4D0C5",
"O. c #D5D1C5",
"+. c #D5D1C7",
"@. c #D5D3C7",
"#. c #D6D2C7",
"$. c #D6D2C6",
"%. c #D7D0C6",
"&. c #D3D1C5",
"*. c #D8D5C6",
"=. c #D7D3C8",
"-. c #D6D3CA",
";. c #D6D4C8",
":. c #D5D3C9",
">. c #D8D4C9",
",. c #D9D5C9",
"<. c #D8D4C8",
"1. c #D9D5CA",
"2. c #D8D6CA",
"3. c #D9D7CB",
"4. c #DAD6CA",
"5. c #DAD6CB",
"6. c #DBD7CB",
"7. c #DCD6CA",
"8. c #DBD7CC",
"9. c #DAD6CD",
"0. c #DBD7CE",
"q. c #D8D5CD",
"w. c #D9D6CB",
"e. c #DDDACB",
"r. c #DAD8CC",
"t. c #DBD8CF",
"y. c #DCD8CC",
"u. c #DCD8CD",
"i. c #DDD9CD",
"p. c #DDD9CE",
"a. c #DCDACE",
"s. c #DDDBCF",
"d. c #DEDACE",
"f. c #DEDACF",
"g. c #DFDBCF",
"h. c #DCDACD",
"j. c #DEDCCF",
"k. c #DCD9CE",
"l. c #D6D6D1",
"z. c #DAD6D2",
"x. c #DFDBD0",
"c. c #DEDBD2",
"v. c #DEDCD0",
"b. c #DFDDD1",
"n. c #DFDCD3",
"m. c #DDDBD5",
"M. c #DDDAD2",
"N. c #DDDDD9",
"B. c #DEDBD9",
"V. c #E1DECF",
"C. c #E0DCD1",
"Z. c #E1DDD1",
"A. c #E1DDD2",
"S. c #E2DED3",
"D. c #E1DBD5",
"F. c #E3DDD5",
"G. c #E3DFD4",
"H. c #E1DED3",
"J. c #E0DED8",
"K. c #E2E0D4",
"L. c #E3E1D5",
"P. c #E4E0D5",
"I. c #E7E1D5",
"U. c #E5E1D7",
"Y. c #E4E2D6",
"T. c #E6E2D7",
"R. c #E4E2D5",
"E. c #E6E4DA",
"W. c #E9E5DB",
"Q. c #EBE9DE",
"!. c #E7E7E1",
"~. c #ECEBE3",
"^. c #F1EEE6",
"/. c #EFF3E8",
"(. c #F3F0E7",
"). c #F4F2E9",
"_. c #F8F5EC",
/* pixels */
"                                                                                                                                ",
"                                                                                                                                ",
"                                                                                                                                ",
"                                                                                                                                ",
"                                                                                                                                ",
"                                                                R {                                                             ",
"                                                            ^ L R R ! [                                                         ",
"                                                        Q H Y ) ` o.| ^ Q _                                                     ",
"                                                    ! Z R _ _ ) | ( ) | | _ U [                                                 ",
"                                                Q A T ` ` ^ ` 5.7.Y.0.^ ) ( 0.( Q )                                             ",
"                                            U G R ( | ( ` 5.i.Z.Y.o.5.Y.5.` ( { { [ Q )                                         ",
"                                        P G Q ) _ ( o.5.i.Z.i.i.5.i.Z.i.i.i.0.` _ _ | _ R !                                     ",
"                                    Y F Q _ ( ) ` r.5.5.K.b.=.Z.i.Z.o.Z.i.5.i.Z.5.| ^ ( | ) R _                                 ",
"                                I H R ` _ ( | r.;.5.5.Y.;.o.G.i.5.o.Y.o.o.5.o.o.o.0.i.| ) ) ` ( R [                             ",
"                            W F ( ) ( ( o.Z.0.o.8 2 1 E c.b v b.B ; _ x e z * A < G i.i.5...) ) { ^ R ) m.                      ",
"                        Y K Q ` ( ) o.i.i.5.i.Z.f f 1 I 0.w 8 0.=.6 1 Q b I > a _ i.Z.5.i.e.o.| ( { | ) R ^                     ",
"                    Y I Q ) _ ( 5.5.i.i.i.i.i.i.f s q B I 3 $ ^ X.Z f * m I ; & T i.0.c.Z.5.Y.5.r.{ ) ` | _ ^ R G.              ",
"                L I E ^ ( _ o.c.5.i.i.i.i.i.i.0.a s y v w ^ i i E d | q Z N 6 m < ) Y.o.c.0.5.c.K.b.5.X.) ( ) | R ^ D.          ",
"          { P H ) ( ) o.5.i.0.0.i.j.j.j.b.i.i.i.H G E ` G ` I I I R | o.! R G ) H ^ 5.Y.i.r.K.i.;.5.i.j.5.| ` ` o.` Q Q N.      ",
"      { L K ) | r.o.| ` | ` | | ` ` ` ` { { { { ` o.{ ` =.{ X.( { ( X.| | ..` | ;.` ` | | { ` ` X.{ ` | o.o.| ` o.o.=.{ P ~     ",
"      T ~ { r.r.o.o.| ' ` ` ` | ` ` ` ` ` ` ` ` X.( { ` ` ` ) X.{ o.) { _ { { ` ( | | ) { { ( | ` ` ) ) ) ` | o.=.i.c.c.m.{ }   ",
"      :.q.M.c.| j.r.o.<.i.i.5.o.r.r.5.5.5.5.5.5.b.| b.X.r.K.;.;.o.5.i.5.i.;...r.K.X.5.i.;.5.r.5.;.5.i.i.i.5.5.5.i.| M.=.B.z.    ",
"          !.{ r.| ..X.X.| | o.5.X.X.X.X.........| ;.| 5.X.X.` o.5.;.{ | X.o.X.r.` ;.;...o.;.X.| ;.X.| | ..X.o.| X.r.=.z.        ",
"            :.) | | ` ` ` | ` ` { { { { { { { ` | ) | ` ` ` ;.` ) | { | ` | { ` ` ..) ` | ` ` | ` { { { { { ` ` ` { {           ",
"            m.K.Z.~.Y.K.W.W.Y.Y.K.E.W.K.Y.Y.Z.W.K.Y.E.E.c.W.E.E.K.~.K.E.Y.W.Z.E.Y.Y.Y.Y.Z.E.K.E.K.E.K.E.Y.Y.Y.Y.Z.E.m.          ",
"                _ E Q ( ^ E R D e i q s e f R T ( ( E ! ! b w y y w e f E Y ) ! ^ ! E x i e i q y f E R ! ( ! R ( W.            ",
"                ` ) { o.5.` { ^ & O % % O l { ) ) ;.;.) { ! + O # % + M { ` ` ;...) ) E O + . % @ B { { { | o.` ( :.            ",
"                :.{ { ( _ ( { ) % + O - - l | { ` ` ) ) ` E O + + & : m { ` ` ` _ ) X.L o & : - % b ` { _ o.^ ) | q.            ",
"                  { q.{ Q G Z q O O + 1 1 6 v | @.) L L N 2 + % : 1 6 6 F X.@.^ L H M ; % : 2 1 1 : N X.| ( R F )               ",
"                  ~.m.) I N f X % = 7 7 r y y ~.;.` P B q . - - 6 y q 6 x !.3.) Y m 6 % 5 6 5 y 6 1 d W.b.^ T m ^               ",
"                    E.{ E N y + O 4 4 q s u g ~.b.) P N 7 % - 7 r y s u b ~.;.) L c 8 < q r u q r r z ~.q.| F m ]               ",
"                    J.| L m a # # : r y d d d ).M.{ P v q + : 6 u u a a v ).b.( H m 3 1 6 y u y u r g _.c.) T v )               ",
"                    m.X.T m p O # , 6 p h f z ^.c.{ P n q + ; q a f d s m ^.c.) L v 8 , q i s s p p x ^.c.( L v )               ",
"                    b.X.T m p O # , 8 p h g z (.c.{ P n q + ; q s h f f M ^.c.) L v 8 , q p d s s p x ^.i.) P v )               ",
"                    b.X.T m p O # , 8 s j h x ).c.{ P n q + ; q f h h f N (.i.) L v 8 , q s g g g s x ^.i.) P v )               ",
"                    b.X.T m p O # , 8 s z j x ).c.{ P n q + ; q g k j h N (.i.( L v 8 1 q s h g g d v ^.i.) P v )               ",
"                    b.X.T m p O # , 8 f x z c ).c.{ P n q + ; q h z j j B ).c.( L v 6 1 q f h h h f v ^.i.) P v )               ",
"                    b.X.T m p O # , 8 f x z v ).c.{ P n q + ; q h z l j Z ).c.( L v 6 1 w f h h h f v ^.i.) L v )               ",
"                    b.X.T m p O # , 8 f x z v ).c.{ P n q + ; q g z z j Z ).c.) L v 6 1 w f k h j g v ^.i.) L v )               ",
"                    b.X.T m p O # , 8 f x z c (.c.{ P n q + ; q g z z j Z ).c.) L v 6 , w g k h j g v ^.j.) L v )               ",
"                    K.{ I m p # & , 6 h z z x ^.c.{ P m q + ; 9 d x j h Z ).0._ L b 8 > q g k h h f v ).5.) H v )               ",
"                    m.{ Y m i # + , 6 f k z x ).c.{ P n q + : q g z j f Z ^.0._ L b 8 , q f h h h d x ^.i.) L v )               ",
"                    b.{ Y M p # + 1 8 s j j z ).c.{ P m q + : q g h h f Z ~.c._ L v 8 1 q s g g g s x ~.i.) Y v )               ",
"                  ~.m.{ Y M p # O 1 6 a j g j ).c.{ P m q + ; 9 s g f f N ^.c.( L v 6 1 q p s d s s x ).i.( P v )               ",
"                  (.m.{ I m i # O , 6 p j s j _.c.{ L n 9 O ; 9 p g s f b ).c.( L v 6 , q i s a p i k _.i.) K v ]               ",
"                  /.m.{ Y m i @ # , 6 u h i h ^.c.{ L b 9 O ; 9 u d i i b ^.c.) L v 6 > 9 y p p p w j ^.r.` H v ]               ",
"                  ~.M.{ T B s # % , 8 w s y j ~.0.{ I N q # ; 6 y u i w N Q.0.( I m q > 6 w y y t q v E.5.) L m ~               ",
"                  W.;.{ R A f % O ; 6 9 y i x ~.=._ T Z y & - 5 t q i w F E.=.( I N t , 2 q t q q q Z G.;.( Y Z T               ",
"                  !.X._ R G b 2 + & , 9 t 6 0.G.=.( T F v ; # 1 7 q 9 y ^.M.X.( T A v ; 5 6 7 9 6 6 ~.G.X.^ R Z v               ",
"                  Y.X._ R D b 6 O # 1 6 6 0 r.K.=.) R G v - & - 6 q 5 t Y.G.;.( Y A v - 5 6 6 6 2 8 G.G.o.E Y D v               ",
"                0.X.{ { ( ^ R N O O 1 6 2 y { ` ) ) ( ^ R b O - 5 5 1 f ;.X.) ( ) ^ R x & 2 5 2 > i | { { ` ) E T               ",
"                | { { X.| | =.) 1 > 2 0 e b ..o.X.;.X.o.o.Q > 1 6 0 w M ` ` ` ;.o.....Y 1 8 6 6 6 b o.X.{ | X.X.=.Y.            ",
"              b.G.b.c.Z.i.i.Z.i.i.i.i.i.i.i.j.<.V.<.;.5.G.i.Z.0.0.G.0.i.i.Z.e.e.r.e.K.i.5.Z.i.G.G.G.i.0.Z.Z.0.c.0.c.            ",
"              | ` ` ` | ` { | { { | ` ` | ' ` ..` ` ..| | ) | ` ` | ` | ) ' ' ` ..` _ _ | | ) _ ( { _ { | ` ) | | { M.          ",
"            J.=.5.5.0.0.5.0.5.5.=.0.i.5.i.5.o.5.5.i.5.o.=.Z.| Y.c.o.5.Z.i.5.o.<.5.o.5.Z.| i.0.c.r.G.5.;.5.i.i.5.i.=.q.E.        ",
"          M.{ { | { | ` { | | { | | | ` | | o.| { | | | | ` | ` | { | ` ` | | { ` | | _ =.| { | { { { X.| | { | | | | |         ",
"        m.z.m.C.r.0.0.0.r.r.c.c.c.M.M.M.M.c.r.r.c.c.c.r.M.M.M.c.m.c.c.M.M.r.r.r.r.r.r.r.M.M.M.M.c.c.c.c.r.0.0.0.z.0.c.b.l.      ",
"         .) ! R ! Q R T I L L L L K J F F F S A Z Z Z C C C C N V N C C C C C Z Z Z S S F F K G G K L P U T R Q ^ Q ! / )       ",
"                                                              W ~ W W                                                           ",
"                                                                                                                                ",
"                                                                                                                                ",
"                                                                                                                                ",
"                                                                                                                                ",
"                                                                                                                                "
};
