/* XPM */
static char *_40e1c0201c841999aa2234fbd7b5a3fy6SGLNSd22XEVmNd[] = {
/* columns rows colors chars-per-pixel */
"64 64 242 2 ",
"   c None",
".  c #3C3C3C",
"X  c #41423E",
"o  c #6C563F",
"O  c #433E40",
"+  c #3F4543",
"@  c #444444",
"#  c #4D4D4C",
"$  c #464A47",
"%  c #524A4C",
"&  c #4B524D",
"*  c #4F4D51",
"=  c #535353",
"-  c #5B5C5C",
";  c #5A5959",
":  c #505151",
">  c #635C59",
",  c #72584E",
"<  c #66625C",
"1  c #6E6C4C",
"2  c #5C5D60",
"3  c #665E64",
"4  c #615D76",
"5  c #5C6766",
"6  c #5A6E72",
"7  c #636464",
"8  c #6B6C6C",
"9  c #686768",
"0  c #736869",
"q  c #66736A",
"w  c #75746A",
"e  c #686B74",
"r  c #737373",
"t  c #7D7D7D",
"y  c #77797B",
"u  c #6F6F75",
"i  c #BE5F3E",
"p  c #C85C36",
"a  c #8B584E",
"s  c #B1594E",
"d  c #906F4E",
"f  c #B9674A",
"g  c #AC6C53",
"h  c #B1596D",
"j  c #857C78",
"k  c #957B70",
"l  c #AC686D",
"z  c #8D5E70",
"x  c #CF5453",
"c  c #CC5769",
"v  c #C9696E",
"b  c #7C837A",
"n  c #749A6E",
"m  c #72C17F",
"M  c #BA943D",
"N  c #B48C2D",
"B  c #D79417",
"V  c #CC9119",
"C  c #CA9629",
"Z  c #C49A37",
"A  c #CC942D",
"S  c #B89956",
"D  c #AF9053",
"F  c #9A8C69",
"G  c #84857A",
"H  c #968B75",
"J  c #9B9578",
"K  c #A78F6B",
"L  c #A8A878",
"P  c #B6B879",
"I  c #9E8E5A",
"U  c #C59A46",
"Y  c #D99353",
"T  c #EBA45C",
"R  c #CC8F6D",
"E  c #FF936E",
"W  c #D6B178",
"Q  c #F9A27B",
"!  c #C3A34C",
"~  c #D2CF75",
"^  c #F5CA76",
"/  c #5E6C89",
"(  c #666886",
")  c #7D7C82",
"_  c #777888",
"`  c #6F7688",
"'  c #6A7BB0",
"]  c #857C85",
"[  c #95718A",
"{  c #A2738F",
"}  c #7B8285",
"|  c #719291",
" . c #7ABC87",
".. c #76A894",
"X. c #77AE9A",
"o. c #7285BA",
"O. c #72C584",
"+. c #828282",
"@. c #848389",
"#. c #8B8C8B",
"$. c #888987",
"%. c #958A8A",
"&. c #8E938A",
"*. c #96968B",
"=. c #8C8D93",
"-. c #8B8996",
";. c #968D98",
":. c #8C9395",
">. c #959594",
",. c #9A9A95",
"<. c #95949A",
"1. c #9A959B",
"2. c #9C9B9C",
"3. c #979896",
"4. c #A49986",
"5. c #A39C9D",
"6. c #A39B96",
"7. c #AE8394",
"8. c #9DA098",
"9. c #82BE8B",
"0. c #A8A488",
"q. c #A2A19D",
"w. c #A5A89D",
"e. c #BBAD90",
"r. c #9D9DA1",
"t. c #989BA7",
"y. c #878DAB",
"u. c #A29DA3",
"i. c #A19EB3",
"p. c #9CA1A6",
"a. c #94AAB0",
"s. c #A3A3A3",
"d. c #ACACAC",
"f. c #A7A8A9",
"g. c #B3ACAC",
"h. c #AEB2AD",
"j. c #AAB1A8",
"k. c #B2B2AD",
"l. c #BAB3A9",
"z. c #ADADB1",
"x. c #A5A8B6",
"c. c #B2AEB4",
"v. c #B8ADB9",
"b. c #AEB2B3",
"n. c #AAB6B7",
"m. c #B3B3B3",
"M. c #B9B6B6",
"N. c #B5B5BA",
"B. c #B5BBBB",
"V. c #BCBCBC",
"C. c #B8B8B6",
"Z. c #C59193",
"A. c #C3A99A",
"S. c #C7BE87",
"D. c #ECB284",
"F. c #C6A5A5",
"G. c #C5BBAB",
"H. c #C6B9B7",
"J. c #D6B1B4",
"K. c #F5B6A9",
"L. c #B8C1BB",
"P. c #D0CB8A",
"I. c #FECB8A",
"U. c #F4CE96",
"Y. c #C3C2BD",
"T. c #C8C9B8",
"R. c #D8CDB5",
"E. c #EBD4AD",
"W. c #FFE0AF",
"Q. c #9FA8C3",
"!. c #AAB6C8",
"~. c #BDBDC2",
"^. c #B9BBC8",
"/. c #AAB2D0",
"(. c #8599CC",
"). c #C1BBC3",
"_. c #D1BCC2",
"`. c #EFBDC3",
"'. c #C5BFE1",
"]. c #BEC3C5",
"[. c #BDC8DC",
"{. c #BFC6E3",
"}. c #C4C4C4",
"|. c #CBCBC5",
" X c #C5C5CB",
".X c #C6CACC",
"XX c #CCCBCC",
"oX c #CCC6C7",
"OX c #D2CCCB",
"+X c #D4CAC6",
"@X c #CCD1CD",
"#X c #D3D3CB",
"$X c #D4D3C1",
"%X c #CBCCD3",
"&X c #C7CAD4",
"*X c #D1CDD3",
"=X c #D5CCD6",
"-X c #CDD3D5",
";X c #CCD6D7",
":X c #D3D3D4",
">X c #DBD4D4",
",X c #D3D4DB",
"<X c #D9D5DB",
"1X c #D6D9DD",
"2X c #DCDBDC",
"3X c #D8DBD4",
"4X c #E6C9C9",
"5X c #E2DDDB",
"6X c #E6D5D9",
"7X c #F2DBD1",
"8X c #DDE1DB",
"9X c #CEE1CF",
"0X c #F0E8DC",
"qX c #DDD4E3",
"wX c #DCDDE2",
"eX c #D7D9E6",
"rX c #CFD5ED",
"tX c #E3DDE6",
"yX c #DDE2E4",
"uX c #D8E4E4",
"iX c #DEE8F3",
"pX c #E3E3E4",
"aX c #ECEBE4",
"sX c #E4E6EA",
"dX c #E5E9EC",
"fX c #ECECEC",
"gX c #E8E6E6",
"hX c #F3EDEC",
"jX c #F1E8EC",
"kX c #EEF1EB",
"lX c #EFF4E5",
"zX c #F2F2ED",
"xX c #F4F5E8",
"cX c #EEEEF1",
"vX c #E4E8F8",
"bX c #F2EDF3",
"nX c #F6EEF7",
"mX c #EDF2F3",
"MX c #E8F2FA",
"NX c #F2F2F2",
"BX c #FCFDFE",
"VX c #F6F6F9",
/* pixels */
"BX                                                                                                                              ",
"                                                                                                                          BX  BX",
"fX                                                  z.2.>.#.+.) ) ] @.+.#.2.m.                                        BXBXBXBXNX",
"fXfXfXfXNXBX                              #Xd.y 2 7 8 u y G $.>.;.;.-.$.) r 9 < 7 r m.yX                          BXBXVXVXNXzXfX",
"fXpXpXfXfXgXfXcXVX                  w.&.$.w.Y.~.,XwXcXnXNXhXaXaXbXbXbXbXNXNXfXpX#XC.k.>.+.2. X                  dXsXfXNXfXpX2XfX",
"NXNXfXfXpXpXgXfXgXdX        N.<.>.d.@XgXaXaXfX2X<X=X X~.V.V.H.Y.H.).).).).}.OX3X2X8XkXfXpX*Xf.#.p.].        VX%X,X2X2X2XgXfXNXNX",
"2XgXmXmXcXNXfXpXwX-XVXBXBXBX].}.wXsXwX%X}.~.XXXX%X<XpXgXtXqXqXqXqXqXtXtXsXpX3X#X|.Y.~.~. X,XtXyX.Xf.B.      ,X.XXXwXcXcXNXVXgXXX",
"OXXXXX2XfXcXcXcXsX2XyXVXBXwX-X~.N. X%X<XwX:XoXV.N.z.s.5.5.5.5.6.0.0.q.5.u.f.k.M.Y.|.:XwXwX%X}.V.].wX1XMX  mX].-X2XdXcXdX:XV.C.V.",
"XXXXoXoX}. X,XsXcX1XsXBXdX-X&Xx.&X^.c.q.2.,.,.1.1.r.1.,.J L P.~ ~ ~ L 4.,.1.u.1.,.>.3.q.s.k.Y.@Xb.wX,X;XBXsX&X;X1XXXV.N.V.].}.}.",
"XXoXoXXXXX}.].~.dXyX%Xz.-X-X,X<.-.-.1.8.8.*.>.1.1.1.1.,.J L P.~ ~ ~ P L *.1.r.<.2.,.,.,.,.,.>.#.#.,XwX,XN.^.%X%X~.N.N.C.}.}.}.}.",
"XXoXoXXXXXoXV.b.~.dX~.9 m.-XyX<.@.$.$.&.,.2.,.>.2.2.1.2.*.*.0.0.L 0.4.*.1.u.r.2.,.3.,.1.>.>.>.#.=.1X,X%Xy r.:X}.z.z.N.}.oXXXoXoX",
"XXXXXXoXoXoX}.V.m.fXf.- N.pXdXs.&.#.$.#.&.>.,.2.s.d.M.XX:X>X5X5X5X5X5X=X%X).z.s.2.>.3.,.>.@.@.@.=.wXwX1Xy =.-Xm.b.N.}.XXXXXXXXXX",
"oXXXXXXXXXoX}.V.C.fX1.5 V.sXdXd.3.&.$.#.+.>.C.2XfXgXfXNXNXcXbXbXnXbXnXnXnXbXfXbXgX|.w.+.$.$.<.t.<.sXfXpXy $.wXN.m.V. XXXoXoXXXXX",
"XXXXXXXXXXXXoXV.m.fX<.- V.fXNXd.f.q.&.$.+.V.fXBXVXNXNXNXNXNXnXVXnXnXbXhXzXfXbXNXVXfX}.&.*.1.u.r.s.fXfXpXu y pXN.N.}.oXXXXXoXXXXX",
"XXXXoXXXXXXXoX}.}.fX>.y :XfXpXd.k.d.2.>.>.1XVXdXmXNXzXkXzXzXfXfXgXVXxXlXxXlXxXfXfXBXwXr.q.s.d.k.f.3XfXVXd.t 2X}.V.}.XXXXXXXXXXXX",
"oXXXXX-XXXoX}.}.oXpX>.d.gXV.s.d.m.d.f.f.<.XXNXNXcXNXNXkXzXNXcXfXG.4XE.E.E.E.E.T.,XvXeXs.k.k.k.k.d.s.d.1XNX#.:XXX}.}.XXXXoXXXXXXX",
"XXXXXXXXXXXXoX}.XX2Xt }.}.d.m.m.m.m.m.f.V.gXNXNXbXNXNXaXkXmXMXpXF S U C C Z S K ^.MXvXXXh.k.M.c.m.m.m.m.fX$.oX:X}.oXoXoXXXXXXXXX",
"XXXXXXXXXXXXoX}.:X:Xr }.V.m.m.m.m.m.N.z.oXfXNXzXNXhXzXzXmXvX/._ I M A B B V C S | (.rX.Xk.M.C.c.C.m.m.m.fX+.oX2X XoXXXXXXXXXXXXX",
"XXXXXXXXXXXXoX}.2XXX8 :XV.m.m.m.m.m.N.N.2XcXNXzXzXaXxXfX].Q.o.( F U A B B B V S ` ' i.-.C.d.d.N.C.m.m.m.fXt oX2X XoXXXXXXXXXXXXX",
"XXXXXXXXXXXXXXoX2X:X8 gXV.m.m.m.m.m.N.N.dXcXNXzXNXhXzXNX&XQ.' ( F U C B B B V S ` ' y.p.V.h.V.d.m.m.m.m.fXt }.2X}.oXXXXXoXXXXXXX",
"XXXXXXoXXXXXXXoX2X2Xy fX}.d.C.m.m.m.m.~.fXmXNXNXbXbXfXNXvXrXy.4 K M C B V V C D e ' !.,X%XN.c.C.m.C.m.d.NX+.V.2X}.oXXXXXXXXXXXXX",
"oXXXXXoXXXXXXXoX2XXXy fX}.d.m.m.m.m.m. XkXzXNXbXnXVXnXNXmXiX&X^.F S M Z N U ! I x.rXrXdXqX<.y d.m.C.m.d.NX+.d.:X}. XXXXXXXXXXXXX",
"XXXXXXXXoXoXoXoXpXm.t fXV.m.m.m.m.m.C.XXfXzXNXcXcXcXcXfXkXpXyXdXl.4XE.E.E.E.E.G.rXvXqXjXqXu.3.k.m.C.m.d.kXt >.2XV.}.XXXXXXXXXXXX",
"XXXXXXXXoXoX|.}.pX1.#.VXV.m.m.C.m.m.m.@XgXkXNXzXNXNXNXzXkXpX,X~.4X`.4XH.fXL.9X9X;X[.qX=X*X~.m.k.m.m.z.m.fXy $.2XC.L. XoXoXoXXXoX",
"oXoX}.}.}.}.V.V.gX#.s.NXV.d.C.m.b.V.c.tXNXNXfXkXzXzXaXlXlXpXeX[ l s l 7.eX.. . .X.a.-Xd.f.f.L.h.b.m.m.m.fXt +.pXm.V.}.oXoXoXoXoX",
"}.L.V.V.V.C.C.m.gX>.d.NXV.d.C.m.m.m.V.,XbXVXNXzXkXzXxXlXNXdXrX[ x x h { &X..O.O.X.a.;X3X,XB.b.n.m.C.m.m.fXt @.fXd.m.V.V.}.}.}.}.",
"V.V.V.C.C.m.m.d.fX#.C.NXV.d.C.m.V.d.m.m.XXpXpXfXcXsXdXdXdXeX'.{ x x h { /...O.O...a.XXOX~.z.h.m.m.C.m.m.fXt +.fXm.m.C.V.}.}.}.}.",
"NXNXfXfXfXfXgXpXfX+.V.NXV.d.C.m.m.k.).oX}.XXc.x.i.x.x.p.} t./.[ x x h { y.|  .m ..| B.m.c.c.m.k.m.C.m.m.fX+.t pX2XpXgXfXfXNXNXNX",
"NXfXfXNXNXNXNXfXfXy V.NXH.d.m.m.m.m.|.5X>X5XwXeXrXrXrXvX-._ i.[ h c h [ ( | 9. .X.| n.V.v.;.6.l.m.C.m.m.fXt r :XNXNXNXVXVXNXNXNX",
"fXgXpX2X:X:X:X:XgX9 V.NX).d.m.m.k.k.XX2X5X>XbXdXy.y.t.eX=.) i.[ s s z ] e } n n | 6 n.C.d.] *.m.C.C.m.m.fXt 9 oX:X:X:X:X2X2XpXfX",
"m.d.d.d.d.d.m.V.2X7 V.NXV.d.m.C.C.m.OX<X6X>XbXdXsXvXuXyX#.@.x.0 a a < e 9 w 1 1 q 6 n.m.l.l.n.n.m.C.m.m.fXG 7 oXV.m.d.d.b.b.m.m.",
"C.C.C.N.m.m.C.~.<X2 }.NXV.d.m.m.m.m.%XtX<XpXVXNXmXNXmX8X$.t x.H I D G q $.e.S.e.q 6 a.n.g.k.n.n.b.C.m.m.fX) 3 OXH.m.d.m.V.V.V.C.",
"}.}.}.~.Y.H.V. XeX3 XXNX~.z.m.k.m.N.%X:X:X,XcXNXNXcXmXpX$.t f.J U Z H 8 H P.~ P.e ' !.B.C.k.k.m.m.m.b.z.bX] 3 >XoXk.M.H.}.}.}.}.",
"XXXX&X X|.|.Y.XX:X7 }.aX}.z.d.C.m.m.%XwX2XwXcXcXNXNXNXpX$.] V.F C A H m.L P.~ W / o.!.n.f.M.m.d.m.N.C.d.nX] 3 oXOXM.}. XXXoXoXoX",
"OXOX%X.XXX|.T.#XT.< T.xXY.z.N.V.m.m.-XpXpXpXfXgXgXgXpXwX#.+.V.F Z Z J C.0.P.~ ~ / o./.^.>.> 2.N.N.b.h.d.hXj > l.3X]..XXXXXOXOXOX",
"OXXXXX.X@X|.|.#XG.1 e.7XH.g.C.m.N.m.XXpXfXdXfXwX:X:X:XwX#.) s.J Z M H 8 H P.~ P.( ' /.^.m.f.^.v.%X~.k.G.4Xk , 6.3X}.%X%X%XXXOX|.",
"XXoXXX.X-X&X&X6XZ.l l K.J.v.V.gXV.C.XXgXcXmXcXwX>.2.d.pX=.+.s.J S S *.7 H R.~ P.` / Q.!.b.C.z.~.<X:Xm.F.v s a *.2X}.OXXX%X&XXX|.",
"XXXXXXXX-X&X&X6XZ.v s K.J.g.M.zXV.m.oXgXNXNXNXpX2.2.>.2X$.) f.j d d j 9 w J F H e ( x.t.b.m.N.c.2X:Xc.F.x x a H 5X}.XXXX%X&XXX|.",
"%XXXXX|.@X.XXX7XR f f K.J.M.V.gXV.m.oXpXfXfXNXpXC.~.V.fXm.r.N.*.4.4.6.*.8.&.*.*.r.:.~.) :.f.k.M.2X:Xm.A.s i d 4.pXoXXX%X%X%XXXOX",
"XXXXOXXXXX.XXX7XD.D.I.W.H.z.C.kXV.m.oXpXfXfXNXgXfXcXdX2Xz.s.m.2X>X>X#X#X3X3X:X>X>X:Xf.$.y f.k.k.5X:Xk.A.Q Q R H aXoXXX%X%X%XOXOX",
"XXOXOXXX%X%X%X0XW I.I.W.G.f.V.dXV.m.}.pXNXNXfXNXNXfXNXwXm.}.pXwX,X:X:X2X8X1X,X:X>X5XpXh.b *.M.k.2X#Xh.e.I.^ W k aXXXXXXX%X%X$XT.",
"XX|.oXOX=X X*X7XR Y Y U.G.b.V.1XV.m.}.:X2X2X2X:X2X:X2X2Xm.~.pXNXVXcXcXNXNXmXmXmXbXhXgXB.,.8.q.m.2XXXm.A.T T R d >XXXOXXX X X|.$X",
"-X.XoX+X*X.X<X7Xg f f K.H.z.C.3XC.q.C.pXNXNXNXNXNXNXfX2Xm.}.3X:X1X,X:X:X:X:X-X1X=X5X2XV.3.>.#.z.tX%XN.F.i p s , >X*XXX*X*X*X%X&X",
"&X%XOXOXXX.X X7Xg f f K.H.z.m.:Xm.$.s.2XgX2X:X2X2X2XpX2XC.}.2XVXmXmXhXzXzXkXmXmXnXbXpX].>.<.@.@.,X%Xb.A.i p s , oX}.XXXXXXXX%X-X",
"|.Y.M.d.r.<.#.R.g W W U.l.b.n.1X=.t >.C.C.C.V.V.V.V.C.d.2.}.pXfXcXfXhXxXkXkXmXmXbXnX8X].<.-.) y XX:Xh.e.T Y D o |.=.#.3.g.H.Y.Y.",
"j w 9 9 7 7 r R.d I.I.W.l.b.N.sX=.+.#.3.>.1.1.>.2.>.>.s.>.,.C.pXdXgXgXgXpXpXdXdXjXtXj.3.>.-.) ) }.#Xj.e.I.^ W , Y.y 5 8 0 < 8 b ",
"9 3 7 9 q 5 $.R.a R R K.F.c.f.2X2.#.>.1.1.2.1.>.2.,.,.>.>.>.2.s.r.u.5.5.5.r.p.p.1.u.&.*.5.1.$.+.oX}.b.A.E E K , L.:.5 7 0 < 5 6 ",
"9 9 9 5 5 q d.+Xa g s K.F.;.#.XX<.>.2.2.3.1.1.1.>.,.2.>.2.>.1.1.1.2.2.5.2.2.3.3.u.3.8.*.>.5.>.$.#.} 3.Z.x x a > d.N.e 9 < 9 e 6 ",
"9 0 9 8 e f.pXH.a l l F.4X>.:.r.p.s.s.s.s.s.s.s.8.2.2.2.2.2.2.2.2.2.2.2.2.2.2.8.u.s.s.s.s.s.s.8.s.3.>.J.c c a ; 5.*Xz.e 9 8 9 0 ",
"< y %.z.,XdXgX_.k Z.l Z.4X>X-X;XoXoXoXoX}.V.m.d.s.s.d.d.d.d.d.d.d.d.d.d.d.d.d.d.d.d.m.V.}.}.oXoX XXX-X4Xv v %.G m.*X,X&Xn.=.t 3 ",
"@XyXdXpXwX2XwX      k j *.d.z.V.}.oX:X2XgXfXfXNXfXfXfXfXfXfXfXgXfXfXfXfXfXfXfXfXfXfXfXfXfXpX:XXX~.b.h.6.l `.  BXNX:X X,X,X1XyX-X",
"8X3X,XwXtXdX        j G b t ] ] t t t t +.+.$.#.1.2.s.d.h.C.N.V.m.m.m.m.d.d.d.d.2.>.#.$.+.+.+.) } y } j k J.      BXwX,X,X-X;X;X",
";XuX              C.b b b t ] ] +.+.+.+.+.t t t +.+.+.+.t t t t +.+.+.+.+.+.t t t +.+.+.+.+.t t } } } G t *.zX        BXVXdX;X9X",
"                  q 5 q q y r ] ] t t t t +.+.+.+.+.+.+.+.+.+.+.t t t +.+.+.+.+.+.+.t t t t +.@.) ) r r q q 3X            BXBXVX",
"                  & # $ & = % > ; ; ; ; - 7 8 8 8 8 8 u r r r y y y y r r 8 8 8 8 8 8 9 7 - = = = ; = & & $ Y.                  ",
"                  8 - = * % = % # # # # # # # # # # # # # # # # # # # # # # # # = # # # # # # * * * # $ - < |.                  ",
"                  H.j j y t r 8 8 9 - - = ; = # = = # # # # # # # # # # # # # = = # = = - ; 7 9 0 u y y G %.                    ",
"                    *.> = - 7 9 8 r y 8 >.$.#.#.t y y y r y r r u r r r y y y y y +.#.r r y 8 u u 9 2 5 y                       ",
"                    =.# . # & @ = @ . =                                               @ . # = . % # @ @ y                       ",
"                    :.: X & & + $ # . =                                               @ @ @ # O % # $ & 3.                      ",
"                    b.# @ @ # + # = . ;                                               = . = # O # # $ & f.                      ",
"                      * * @ # @ # # @ 9                                               y @ # # @ # @ $ @                         ",
"                      8 % O % @ # # # #.                                              $.@ # = X : X $ 9                         ",
"                      H.0 % % $ # = 8                                                   8 = @ # # $ 8 Y.                        "
};
