/* XPM */
static char *_fb3becdb22b470b9d4946186db282f0EIwAEGvwzf2dUJMw[] = {
/* columns rows colors chars-per-pixel */
"64 64 216 2 ",
"   c None",
".  c #1A0E08",
"X  c #1C140C",
"o  c #161314",
"O  c #1D1413",
"+  c #1D1815",
"@  c #1D1B1B",
"#  c #18181A",
"$  c #251503",
"%  c #2A1903",
"&  c #371905",
"*  c #231615",
"=  c #231816",
"-  c #231719",
";  c #241B1A",
":  c #291D1B",
">  c #2B1C14",
",  c #301E17",
"<  c #36280E",
"1  c #25211E",
"2  c #2C231C",
"3  c #2D2115",
"4  c #332314",
"5  c #33291D",
"6  c #181F21",
"7  c #251F22",
"8  c #281F20",
"9  c #252223",
"0  c #2B2423",
"q  c #2E2927",
"w  c #242B2E",
"e  c #2C2A29",
"r  c #2A232A",
"t  c #322925",
"y  c #332D2D",
"u  c #392E2B",
"i  c #372721",
"p  c #35312E",
"a  c #3A332D",
"s  c #3B3522",
"d  c #2E2D31",
"f  c #2B3739",
"g  c #333333",
"h  c #3B3433",
"j  c #3B3A34",
"k  c #39373A",
"l  c #3B3A3A",
"z  c #34363A",
"x  c #25302A",
"c  c #49341B",
"v  c #53380B",
"b  c #453423",
"n  c #443C2C",
"m  c #4A3828",
"M  c #443C3B",
"N  c #463835",
"B  c #4B423C",
"V  c #464339",
"C  c #574A3B",
"Z  c #59503F",
"A  c #53422A",
"S  c #604E3F",
"D  c #655439",
"F  c #373841",
"G  c #2E3C47",
"H  c #443F41",
"J  c #3E4342",
"K  c #37464C",
"L  c #3B4F58",
"P  c #464343",
"I  c #4A4444",
"U  c #424549",
"Y  c #4D4B4B",
"T  c #484A49",
"R  c #534D4C",
"E  c #584C46",
"W  c #57504D",
"Q  c #434E56",
"!  c #4B4F55",
"~  c #584F50",
"^  c #4D5354",
"/  c #4D565D",
"(  c #555453",
")  c #5A5352",
"_  c #5D5A55",
"`  c #555B5C",
"'  c #5C595A",
"]  c #57565A",
"[  c #665847",
"{  c #625954",
"}  c #615A5A",
"|  c #735F46",
" . c #5C625C",
".. c #776349",
"X. c #62625E",
"o. c #776858",
"O. c #5C5D64",
"+. c #555A66",
"@. c #4A5460",
"#. c #5B6364",
"$. c #5D666A",
"%. c #556161",
"&. c #5E6C77",
"*. c #646364",
"=. c #636569",
"-. c #6C6768",
";. c #646A6A",
":. c #6A6B6C",
">. c #6A6563",
",. c #736C6B",
"<. c #746C68",
"1. c #6C716D",
"2. c #74716E",
"3. c #646D74",
"4. c #6B6D72",
"5. c #6A6B77",
"6. c #6A7175",
"7. c #6D757A",
"8. c #6E7B7B",
"9. c #65767A",
"0. c #757474",
"q. c #797474",
"w. c #747B76",
"e. c #73767D",
"r. c #747B7D",
"t. c #7A7D7C",
"y. c #867053",
"u. c #84745A",
"i. c #8B7559",
"p. c #927B58",
"a. c #8A714F",
"s. c #877968",
"d. c #817A7B",
"f. c #8A7E73",
"g. c #75817D",
"h. c #79827C",
"j. c #99825C",
"k. c #A0885C",
"l. c #9C856A",
"z. c #998666",
"x. c #8D8376",
"c. c #9C8B74",
"v. c #988777",
"b. c #A28C6D",
"n. c #A68862",
"m. c #AA926D",
"M. c #A99478",
"N. c #B19873",
"B. c #BFA06A",
"V. c #B8A278",
"C. c #D3B06E",
"Z. c #C7A57A",
"A. c #DAB678",
"S. c #D6AE6F",
"D. c #EAC27D",
"F. c #6A7C84",
"G. c #6D7D8A",
"H. c #7D7781",
"J. c #737C83",
"K. c #797E83",
"L. c #737989",
"P. c #758184",
"I. c #7B8384",
"U. c #75808A",
"Y. c #7B848B",
"T. c #7E8290",
"R. c #838483",
"E. c #8B8382",
"W. c #828B8B",
"Q. c #858986",
"!. c #908E8C",
"~. c #81918E",
"^. c #9D958B",
"/. c #888F94",
"(. c #8C9498",
"). c #98999B",
"_. c #A59689",
"`. c #B19E87",
"'. c #AB9C92",
"]. c #A59A94",
"[. c #B7A485",
"{. c #B6A797",
"}. c #969EAA",
"|. c #A39CA2",
" X c #9CA2A9",
".X c #ABA5A9",
"XX c #B5ADA9",
"oX c #AAB3B5",
"OX c #B4AEAE",
"+X c #D8B886",
"@X c #CDB692",
"#X c #CDB697",
"$X c #D2BC93",
"%X c #D1BA9D",
"&X c #D2B498",
"*X c #CBB584",
"=X c #C6B7A3",
"-X c #D3BFA2",
";X c #D8C29E",
":X c #E6CB9D",
">X c #EDCD96",
",X c #DDC6A3",
"<X c #D8C4A9",
"1X c #D0C2B6",
"2X c #EDD5AD",
"3X c #EAD5AB",
"4X c #F2D9AB",
"5X c #F2D6AF",
"6X c #E2CDB4",
"7X c #EDD5B3",
"8X c #EBD6B6",
"9X c #F5DBB2",
"0X c #EECDA6",
"qX c #FAE1B7",
"wX c #C6D1CE",
"eX c #F6E5CB",
/* pixels */
"                                                                                                                                ",
"                                                                                                                                ",
"                                                                                                                                ",
"                                                                                                                                ",
"                                                                                                                                ",
"                  X.                ' T w.Q.W.;.^ z k                                                                           ",
"                  (         (.g U w W.wXoX~.8.J.Y.3.F                                                                           ",
"            I E.  R >.).P   ( ).6.! G / 9.9.F.F.9.L.J./                                                                         ",
"            ( ,.:.I ,.] P ' ' r.}.J.(.&.K L F.G.L.L.L.5.                                                                        ",
"            *.:.-.I l ' ] *.R h H.3. XJ.}.F.G @.J.J.e.4.U                                                                       ",
"              P ( ( ' ~ ) ) ) ) M j T U (.6.).` M _ { E I                                                                       ",
"                -.R ~ B B E N m [ C V j e l :.<.E s.=Xv.n                                                                       ",
"              Y ' j B C 4 $ . % $ < . X = X X $ u.-Xz.8Xu.                                                                      ",
"                ( ) V 4 C `.M.b.b.c._.[ a E.> $ [.p.j.,Xs.                                                                      ",
"                      o.<X@X2X7X,Xc.b W     2 > -X7X@X;Xb                                                                       ",
"                        [.z.b...< s         N i 6X;Xk.v c _.|.                                                                  ",
"                    5 n 5 X i {             , o.[.*Xa.v & & - O.                                                                ",
"                      E.  2.              '.4 <XD $X>XZ.n.c u 9 J I..X                                                          ",
"                          X.              % V.7Xi.l.9X+Xm.b a P ` U w r y I <.].                                                ",
"                        !.  q.        _.c N.9X@X`.u.8X,Xu.[ j I.P.7.O.z r Y ' M h p R t.                                        ",
"                            ^.3 m b A y.$XqX0Xy._.{.`.`.].y x g.K.L.Y.=.g 8 P ' ) V p y e 1 M 2.                                ",
"                            Z =X%X%Xp.m.2X2X3Xc.x.o.    .X9 6 J.P.J.J.e.O.d 7 P R } I 1 ; = O : t e <.                          ",
"                        E.3 D 3X4X5X7Xc $XM.y.o.          o (.3.F.L.3.U.K.! o ; P p V R a : : O : 0 t q _                       ",
"                          v.[.4X4X4X`.c D c.            XX1 .X+.U.J.+.8.J.0.d @ 9 q ; = u u : * O : = t M p -.                  ",
"                          | qX4X4X@XS                   ^.3 d.F Y.U.Q 6.I.7.] @ o ; = - * * * * = : - O 0 h M h                 ",
"                          #X9X4X$X|                     s.5 ~ r e.U.Q $.K.K.:.e o ; - * * * * * O = : * O : h I g               ",
"                        ..  5X5X|           .X          { > > : 4.Y.Q / L.I.e.l @ - * * * = * * * * * = O O 2 y M 0             ",
"                        v.eX7XM.=X        |.1XXX        h 0 * : *.J.@.f r.r.I.] ; O - * * = * * : * * : : * O - y h R           ",
"                        '.eX6Xo.          '.<XM.        0 O r H.=.6.#.w 8.K.e.:.9 O - : * * - = * * * * - - - = O h ;           ",
"                        x.  s.            M.qXZ.<X      g e F =.e.r.6.# %.r.t.*.e O - - - = - = - * * * * = : = : : ; I         ",
"                        V V x.            l.Z.+XN.[.<.X. .w.Y.T.I.$.Q $.^ r.J l l ; - - - : - ; = * * = : : * O : . ; 0         ",
"                                        {.&X0XA.A.V.| <.Y  .` 3.K.oX  oXf w ( e.I 8 : - - ; - = = - - * * * * : O : O O         ",
"                                      XX1X,X>XD.C.+Xl.[ q.            W.K 8.g.0.I ; - - : - = O = = = = = = * * = = O ;         ",
"                                        f.%X>XA.C.B.<X              $.6.I.r.r.=.k ; - - : - - = = = = = = = * * * 2 - +         ",
"                                        _.<X:X>X+Xn.            (.3.~.P.I.8.;.^ 9 : - * - - O : = = = = * * * * - ; . ;         ",
"                                          '...j.i.            w.W.I.K.r.7.%.J @ + : : * * * O : = = = = * * * * = - O ;         ",
"                                                          I.I.R.K.I.e.^ l 6 @ @ 0 - : * - : * = = = * * * * * * - = 2 y         ",
"                                                      oX3.W.r.t.:.>.:.0.@ @ @ y ) O : * - : = = = = * * * * * = = = . q.        ",
"                                                     X6.K.r.=./.      R.@ @ @ q.).; - - * = : * * * * * * * = = = O 0           ",
"                                                    6.I.r.e.          k o ; ;     : - * * - = * * * * * * = = = O ; q.          ",
"                                                  ;.I.r.#.            ; O ; }     >.O ; * = : * = = = O - : - O ; H             ",
"                                                  r.w.1.R.          q.; ; ;         M O = O : : O = : - : O O 0 H               ",
"                                                w.h.w._             P ; O R           p ; ; O O : ; - O ; + - l                 ",
"                                                w.h. .              q @ ;               >.0 ; ; = + ; ; O q x.                  ",
"                                              h.h.X.                R 0 - R                 E.R p q h (                         ",
"                                              1.`                     o : 8 ,.                                                  ",
"                                            I.;.                      d.; ; ;                                                   ",
"                                            =.4.                        ' ; ; 9                                                 ",
"                                            t.                            ' @ ; 0                                               ",
"                                          q.-.                              X.1 ; t                                             ",
"                                          e 9                                 2.: ; y                                           ",
"                                        Y @ 1 @                                 -.- 8 0                                         ",
"                                        q o @ (                                   I - o                                         ",
"                                      } q ; *.                                    I ; 0                                         ",
"                                      h O l                                       ; @ y                                         ",
"                                    ) 0 ;                                         @ ; P                                         ",
"                                  ,.y @ Y                                       P 9 o d.                                        ",
"                                  y ; q                                       l 9 o 0                                           ",
"                                y ; 9                                       l g g Y                                             ",
"                              ( 9 Y                                                                                             ",
"                                                                                                                                ",
"                                                                                                                                ",
"                                                                                                                                ",
"                                                                                                                                "
};
