/* XPM */
static char *_0731552465342ef87ea328a3dde68d2jalwP0hqPzH2ni10[] = {
/* columns rows colors chars-per-pixel */
"64 64 215 2 ",
"   c #66361F",
".  c #6C361F",
"X  c #653A1F",
"o  c #6B3C1F",
"O  c #74371F",
"+  c #7C371F",
"@  c #753D1E",
"#  c #7A3C1F",
"$  c #5D3A23",
"%  c #5D3F28",
"&  c #643C23",
"*  c #6C3D24",
"=  c #743D23",
"-  c #793E24",
";  c #5F432B",
":  c #6C4126",
">  c #65442D",
",  c #6C432B",
"<  c #69462D",
"1  c #744325",
"2  c #7C4325",
"3  c #73452C",
"4  c #7D452B",
"5  c #75492D",
"6  c #7B4A2E",
"7  c #6E4730",
"8  c #674A34",
"9  c #6D4B34",
"0  c #714630",
"q  c #744B33",
"w  c #7B4D34",
"e  c #744F38",
"r  c #7C4F38",
"t  c #765035",
"y  c #7C5135",
"u  c #75523B",
"i  c #7B533B",
"p  c #7C583C",
"a  c #765541",
"s  c #7D5A43",
"d  c #7D5D49",
"f  c #7F604D",
"g  c #83381F",
"h  c #883E1F",
"j  c #833C24",
"k  c #80411E",
"l  c #8B441E",
"z  c #95421F",
"x  c #A1421F",
"c  c #AE441F",
"v  c #A1491E",
"b  c #844524",
"n  c #8A4727",
"m  c #84442C",
"M  c #834B2E",
"N  c #894E2C",
"B  c #9A4221",
"V  c #944B25",
"C  c #9F4C23",
"Z  c #9A4A2B",
"A  c #85512D",
"S  c #8E522F",
"D  c #91512E",
"F  c #9D512A",
"G  c #854D31",
"H  c #8B4E32",
"J  c #8B4F38",
"K  c #845335",
"L  c #8D5432",
"P  c #8E5937",
"I  c #84553A",
"U  c #8B553C",
"Y  c #84593E",
"T  c #8E5A3B",
"R  c #925134",
"E  c #9B5531",
"W  c #905A35",
"Q  c #9F5933",
"!  c #93563D",
"~  c #925A3E",
"^  c #9E5B3E",
"/  c #A74421",
"(  c #AB4824",
")  c #AA4D2A",
"_  c #B54621",
"`  c #B14926",
"'  c #A6562B",
"]  c #AC522D",
"[  c #B25428",
"{  c #BD5B2D",
"}  c #A35434",
"|  c #AB5433",
" . c #A25B36",
".. c #AA5934",
"X. c #A05738",
"o. c #A15D38",
"O. c #AE5C3C",
"+. c #BF5732",
"@. c #B95E33",
"#. c #B05C3F",
"$. c #9E623A",
"%. c #AB6336",
"&. c #A5623E",
"*. c #AE643C",
"=. c #AD693E",
"-. c #BA6037",
";. c #B3653E",
":. c #BA633C",
">. c #C15929",
",. c #CE6A31",
"<. c #CA663B",
"1. c #C6693A",
"2. c #C36A3C",
"3. c #C2703F",
"4. c #8D5740",
"5. c #845C42",
"6. c #8B5D43",
"7. c #815E4A",
"8. c #8E5E49",
"9. c #955D44",
"0. c #9B5D42",
"q. c #A85E42",
"w. c #B15F40",
"e. c #856347",
"r. c #8E6245",
"t. c #85624A",
"y. c #8B624A",
"u. c #946245",
"i. c #9C6146",
"p. c #91644B",
"a. c #9B634B",
"s. c #946A4D",
"d. c #9F6A4A",
"f. c #836350",
"g. c #8B6752",
"h. c #8E6C55",
"j. c #946752",
"k. c #936B54",
"l. c #9A6D54",
"z. c #956D58",
"x. c #997158",
"c. c #9B735B",
"v. c #A16444",
"b. c #AC6443",
"n. c #AD6A44",
"m. c #A8674A",
"M. c #A46D4B",
"N. c #B56645",
"B. c #BD6340",
"V. c #B26A44",
"C. c #BE6D46",
"Z. c #B56C4B",
"A. c #BD6D4A",
"S. c #B67145",
"D. c #BB7142",
"F. c #B3734C",
"G. c #BC714B",
"H. c #A06751",
"J. c #A16E52",
"K. c #AD6B53",
"L. c #B26C51",
"P. c #AA7455",
"I. c #A5755B",
"U. c #A97659",
"Y. c #B47253",
"T. c #B97354",
"R. c #B47A52",
"E. c #BE7855",
"W. c #B3745C",
"Q. c #BC765A",
"!. c #B77C5B",
"~. c #9D7663",
"^. c #AA7662",
"/. c #A57861",
"(. c #A87B64",
"). c #A57B6A",
"_. c #B37661",
"`. c #BD7D66",
"'. c #C06B42",
"]. c #CE6844",
"[. c #C46B4A",
"{. c #C37443",
"}. c #CC7345",
"|. c #C5764C",
" X c #CB764A",
".X c #C77A4E",
"XX c #D27344",
"oX c #D57648",
"OX c #C27754",
"+X c #C47A53",
"@X c #C97A52",
"#X c #C1725A",
"$X c #C6795B",
"%X c #CB7C59",
"&X c #C67C63",
"*X c #C87D66",
"=X c #D27B62",
"-X c #BD835D",
";X c #AF8264",
":X c #BD8364",
">X c #B9876A",
",X c #AE8574",
"<X c #C7855E",
"1X c #CA815C",
"2X c #D18453",
"3X c #CA8265",
"4X c #C88B66",
"5X c #C4826A",
"6X c #C38D6A",
"7X c #D58B64",
"8X c #D58A66",
"9X c #C88873",
"0X c #CB9D7C",
"qX c #D69577",
"wX c #D89682",
/* pixels */
",.,.,.,.,.,.,.L 3.,.,.,.,.,.,.,.,.,.i XXXXXXXXXXXXXXXXXX2.q v v v v v v v v v k 0.#.#.#.#.#.#.#.O.#., +XXXXXXXXXXXXXXXXXXXi ,.,.",
",.,.,.,.,.,.,.L ,.,.,.,.,.,.,.,.,.,.6 XXXXXXXXXX<.<.<.<.2.1 v v v v v v v v v k ! #.#.#.#.#.#.#.#.#.,  XXXXXXXXXXXXXXXXXXX6 ,.,.",
"3 3 % k.k.k.g.7.d i i r r > y.y.y.5.p i q q 3 : a k.k.k.t.7.s p i r > f.h.h.h.t.t.s p y y ; s.s.s.y.5.5.y t 6 6 < t.t.t.5.p u e ",
"v v 3 !.N.B.B.B.B.B.B.B.B.i } ( c c c c c c c z z.N.:.:.B.B.B.B.B.B.M ;XS.D.D.D.D.D.D.D.D.t G.{ >.>.>.>.>.>.>.>.5.E C v v v v v ",
"v v 3 Z.B.B.B.B.B.B.B.B.B.u c c c c c c c c c z y.B.B.B.B.B.B.B.B.B.M R.D.D.D.D.D.D.D.D.D.t -.>.>.>.>.>.>.>.>.>.Y v v v v v v v ",
"v v 3 B.B.B.B.B.B.B.B.B.B., c c c c c c c c c z ~ B.B.B.B.B.B.B.B.B.M n.D.D.D.D.D.D.D.D.D.t { >.>.>.>.>.>.>.>.>.6 v v v v v v v ",
"k k $ R R R R R R R R R R X h h h h h h h h h # 3 R R R R R R R R R , K W W W W W W W W W : V V V V V V V V V V & k k k k k k k ",
"8.U U G G 4 4 : U.M.d.v.&.^ E E V V t >X:X:X<X<X+XE.G.G.n.y.:X!.!.OXOXZ.Z.N.;.L (.>X:X:X1X1XE.E.G.G.5 6X!.!.Q.OXG.Z.V.;.;.9 x.p.",
"g g g g g g g , b.v v v v v v v v v i |.XXXXXXXXXXXXXXXX'.y.<.<.<.<.<.<.<.<.<.E U.oXoXoXoXoXoXoXoXoX6 %X<.<.<.<.<.<.<.<.<.e m g ",
"g g g g g g g , Q v v v v v v v v v i }.XXXXXXXXXXXXXXXX'.p <.<.<.<.<.<.<.<.<.E F.oXoXoXoXoXoXoXoXoX6 A.<.<.<.<.<.<.<.<.<.e j g ",
"g g g g g g g , C v v v v v v v v v 5 XXXXXXXXXXXXXXXXXX'.G <.<.<.<.<.<.<.<.<.E V.oXoXoXoXoXoXoXoXoX6 2.<.<.<.<.<.<.<.<.<.: g g ",
"3 = & i i i i u I I w w 4 , Y Y Y Y s p.p.6.6.K K 6.6.6.T i T T K K 2 I U U U i Y T U K G 5 r.r.r.r.i 6.6.U K K 6 U U U U e q q ",
"c c 3 5XL.Z.N.N.B.B.B.B.B.f.9X5X*X&X&X=X=X=X=XL.l.C.:.-.@.@.>.>.>.>.b Y.#.| ] ) ` _ _ _ _ 5 6XR.R.F.F.D.D.D.D.D.6.b.| | ) ) c c ",
"c c 3 Z.B.B.B.B.B.B.B.B.B.f =X=X=X=X=X=X=X=X=XL.6.>.>.>.>.>.>.>.>.>.b O._ _ _ _ _ _ _ _ _ 3 F.D.D.D.D.D.D.D.D.D.5.( c c c c c c ",
"c c 3 N.B.B.B.B.B.B.B.B.B.a =X=X=X=X=X=X=X=X=XL.R >.>.>.>.>.>.>.>.>.b } _ _ _ _ _ _ _ _ _ 3 S.D.D.D.D.D.D.D.D.D.w c c c c c c c ",
"x x * O.O.O.O.O.O.O.O.O.O.q #X#X#X#X#X#X#X#X#Xm.n [ [ [ [ [ [ [ [ [ 2 B / / / / / / / / ( : =.=.=.=.=.=.=.=.=.=.1 x x x x x x x ",
"6.Y I G N n n : g.7.7.i i q q 3 3 * > I.l.z.p.p.9.9.^ ^ R a x.k.j.y.y.6.4.! ! 3 k.x.x.s.s.u.u.$.&.o.: ~.k.k.y.y.8.6.~ ! R > s.y.",
"c c c c c c c 4 9.g g g g g g g g g u [.].].].].].].].].:.g.B.B.B.B.B.B.B.B.B.R P.XXXXXXXXXX<.<.XXXX4 &XB.B.B.B.B.B.B.B.B.i | c ",
"c c c c c c c 4 J g g g g g g g g g u ].].].].].].].].].:.s B.B.B.B.B.B.B.B.B.R F.<.XXXXXXXXXXXXXXXX4 Y.B.B.B.B.B.B.B.B.B.i ( c ",
"c c c c c c c 4 j g g g g g g g g g 3 ].].].].].].].].].:.w B.B.B.B.B.B.B.B.B.R ;.<.XXXXXXXXXXXXXXXX4 N.B.B.B.B.B.B.B.B.B.3 c c ",
"# # # # # # # &                     $ H H H H H H H H H M & M M M M M M M M M , 4 S L L L L S S S S & M M M M M M M M M M $ # # ",
"F v 3 qX7X7X1X@X.X|.}.}.XXd 5X3X$XQ.T.Z.Z.N.N.X.s.Z.Z.&.&. .Q F F C @ :X%X%XA.A.N.N.@.@.+.5 !.Z.n.&.&.Q Q F C v Y F.Z.b.&.o.Q F ",
"v v 3 @X<.<.XXXXXXXXXXXXXXd B.B.B.B.B.B.B.B.B.X.5.v v v v v v v v v @ Z.+.+.+.+.>.>.>.>.+.q  .v v v v v v v v v Y C v v v v v v ",
"v v 3 }.<.XXXXXXXXXXXXXXXXe B.B.B.B.B.B.B.B.B.X.G v v v v v v v v v @ w.+.+.+.+.>.>.>.>.+.q C / v v v v v v v v q v v v v v v v ",
"v v 1 XXXXXXXXXXXXXXXXXXXX3 :.:.B.B.B.B.B.B.B.X.b v v v v v v v v v @ | +.+.+.+.+.+.+.+.+.3 v v v v v v v v v v 1 v v v v v v v ",
"y.5.i Y K K G 3 6.6.6.6.Y e r 5 3 2 < y.y.y.y.5.i y w 6 4 , Y Y Y Y q w 6 4 2 * 5.p.p.p.r.p I w w M & y.y.y.y.5.i i y y 6 > y.y.",
"B.B.B.B.B.B.B.K n.F C v v v v v v v u L.N.B.B.B.B.B.B.B.O.6.) ) c c c c c c c h I.[.[.].].].].].].].4 6XF.S.D.D.D.D.D.D.D.i Y.N.",
"B.B.B.B.:.B.B.K o.v v v v v v v v v u N.B.B.B.B.B.B.B.B.O.i c c c c c c c c c h K.].].].].].].].].].4 R.D.D.D.D.D.D.D.D.D.i N.B.",
"B.B.B.B.B.:.B.K F v v v v v v v v v q B.B.B.B.B.B.B.B.B.O.3 c c c c c c c c c h b.].].].].].].].].].4 F.D.D.D.D.D.D.D.D.D.t B.B.",
"X.X.X.X.X.X.X.5 l l l l l l l l l l : X.X.X.X.X.X.X.X.X.R o z z z z z z z z z # R O.O.O.O.O.O.O.O.O., $.$.$.$.$.$.$.$.$.$.: X.X.",
"' ) , /.x.l.l.m.m.v.0.^ X.u I.J.M.M.n.n.&.&...D t.x.l.j.a.a.i.0.! R , ).).^.^.^._.W.K.K.K.e U.P.M.M.n.V.%.%...' i J.d.v.v.&.&.} ",
">.>.6 T.B.B.B.B.B.B.B.B.B.7.2.<.<.<.<.<.<.<.<...g.#.#.#.#.#.#.#.#.#.6 9X=X=X=X=X=X=X=X=X=Xp {.,.,.,.,.,.,.,.,.,.u.{ >.>.>.>.>.>.",
">.>.6 N.B.B.B.B.B.B.B.B.B.u <.<.<.<.<.<.<.<.<...6.#.#.#.#.#.#.#.O.#.6 `.=X=X=X=X=X=X=X=X=Xp 2.,.,.,.,.,.,.,.,.,.Y >.>.>.>.>.>.>.",
">.>.5 B.B.B.B.B.B.B.B.B.B.5 <.<.<.<.<.<.<.<.<...U #.#.#.#.#.#.#.O.#.6 Q.=X=X=X=X=X=X=X=X=Xi ,.,.,.,.,.,.,.,.,.,.M >.>.>.>.>.>.>.",
"6 6 > q q 5 3 , r r r r r > w w 4 4 , q q q q 7 > q 7 * * < q q q q > e i q 0 0 e i i i i > 6 6 1 1 : 6 6 6 6 6 < 6 6 1 1 : 6 6 ",
"Z.N.N.B.B.B.B.I 7XOXA.A.'.'.<.<.<.<.e a.U H G m j g g g + d ! J H m m j g g g . l.&.Q Q F F C v v v o 3XC.:.:.@.@.>.>.>.>.i `.T.",
"B.B.B.B.B.B.B.I OX<.<.<.<.<.<.<.<.<.e j g g g g g g g g + u g g j g g g g g g . ~ v v v v v v v v v o C.>.>.>.>.>.>.>.>.>.i N.B.",
"B.B.B.B.B.B.B.I C.<.<.<.<.<.<.<.<.<.q g g g g g g g g g + < g g g g g g g g g . D v v v v v v v v v o -.>.>.>.>.>.>.>.>.>.t B.B.",
"O.O.O.O.O.O.O.y -.-.-.-.-.-.-.-.-.-.& + + + + + + + + + O & + + + + + + + + + . b z z z z z z z z z X ] [ [ [ [ [ [ [ [ [ , O.O.",
"^ ^ > g.t.7.s i u q q 3 = 8 ~.z.h.t.t.5.5.4.U r t.(.l.l.p.p.u.9.0.^ 3 z.x.h.h.t.t.5.5.U U > ,X).~.x.z.k.j.j.H.H.u (.x.l.k.p.u.9.",
"].].w U g g g g g g g g g d q.#.#.#.O.#.#.#.#.R k.].].].].].].].].].H U.#.#.#.#.#.#.#.#.#.q 9X=X=X=X=X=X=X=X=X=Xk.[.].].].].].].",
"].].w m g g g g g g g g g a #.#.#.#.#.#.#.#.#.R p.].].].].].].].].].H K.#.#.#.#.#.#.#.#.#.q *X=X=X=X=X=X=X=X=X=Xy.].].].].].].].",
"].].q j g g g g g g g g g 9 #.#.#.#.#.#.#.#.#.R ^ ].].].].].].].].].H q.#.#.#.#.#.#.#.#.#.q =X=X=X=X=X=X=X=X=X=XY ].].].].].].].",
"H H $                     $ 6 6 6 6 6 6 6 6 6 , 3 H H H H H H H H H : 3 6 6 6 6 6 6 6 6 6 % 4.4.4.4.4.4.4.4.4.4.: H H H H H H H ",
"&XQ.T.Z.Z.N.N.I 0X6X4X-X-XR.R.F.F.S.i Q.A.A.w.#.| | ) ) B k.5X3X3XQ.Q.Z.Z.N.N.R ,XwXwXqX9X9X5X*X&X&Xr qX7X7X%X+X|.A.C.'.2.p 9X3X",
"B.B.B.B.B.B.B.I -XD.D.D.D.D.D.D.D.D.i ) c c c c c c c c x t.B.B.B.B.B.B.B.B.B.R ^.=X=X=X=X=X=X=X=X=Xr %X<.<.<.<.<.<.<.<.<.p Z.B.",
"B.B.B.B.B.B.B.I F.D.D.D.D.D.D.D.D.D.q c c c c c c c c c x i B.B.B.B.B.B.B.B.B.R W.=X=X=X=X=X=X=X=X=Xr A.<.<.<.<.<.<.<.<.<.i B.B.",
"B.B.B.B.B.B.B.I S.D.D.D.D.D.D.D.D.D.1 c c c c c c c c c x w B.B.B.B.B.B.B.B.B.R K.=X=X=X=X=X=X=X=X=Xr 2.<.<.<.<.<.<.<.<.<.q B.B.",
"I K , 6.6.6.6.5.I I w 6 2 < 6.6.6.6.p w w 4 4 O i p.p.p.y.t.5.Y I I 3 6.p.p.p.y.5.6.Y Y U 7 k.k.k.k.y.6.6.I I L q s.s.s.s.t.5.5.",
"XXXXy Z.) ) _ _ _ _ _ _ _ i ..) ( c c c c c c z x.@X X XoXoXoXoXoXoXL :X[.[.].].].].].].].y 4X|.|.XXXXXXXXXXXXXXs.+X|. XXXXXXXXX",
"XXXXy | _ _ _ _ _ _ _ _ _ u c c c c c c c c c z s.oXoXoXoXoXoXoXoXoXL OX].].].].].].].].].y +XXXXXXXXXXXXXXXXXXXy.XXXXXXXXXXXXXX",
"XXXXy ` _ _ _ _ _ _ _ _ _ , c c c c c c c c c z i.oXoXoXoXoXoXoXoXoXL Z.].].].].].].].].].y  XXXXXXXXXXXXXXXXXXXY XXXXXXXXXXXXXX",
"*.*.: B B B B B B B B B B X z z z z z z z z z g L ;.;.;.;.;.;.;.;.;.6 X.O.O.O.O.O.O.O.O.O., *.*.*.*.*.*.*.*.*.*.6 *.*.*.*.*.*.*.",
"P.P.Y.Y.Z.V.V.w I.a.a.0.^ } } Z Z B 7 J.a.i.0.^ } E Z Z B s J.M.v.v.&.&. .} ' b ~.).).^.^._._.P.K.K.9 >XI.I.P.P.F.F.n.n.*.u ;XU.",
"oXoXoXoXoXoXoXP B._ _ _ _ _ _ _ _ _ r | _ _ _ _ _ _ _ _ / y.>.>.>.>.>.>.>.>.>.V ^.=X=X=X=X=X=X=X=X=Xi 7XXXXXXXXXXXXXXXXXXX5.@XoX",
"oXoXoXoXoXoXoXP | _ _ _ _ _ _ _ _ _ q _ _ _ _ _ _ _ _ _ / y >.>.>.>.>.>.>.>.>.V _.=X=X=X=X=X=X=X=X=Xi +XXXXXXXXXXXXXXXXXXX5.oXoX",
"oXoXoXoXoXoXoXP ` _ _ _ _ _ _ _ _ _ 1 _ _ _ _ _ _ _ _ _ / 4 >.>.>.>.>.>.>.>.>.V K.=X=X=X=X=X=X=X=X=Xr  XXXXXXXXXXXXXXXXXXXy oXoX",
"~ P K P P P P q m m m b - = 4 4 4 4 > 4 4 4 - = 2 m m m 4 3 N N N b 2 N G G G 5 Y 8.8.8.U I 8.8.8.8.9 P P P P L K T T T T 9 ~ ~ ",
"=X=Xi L.#...| ] ) ( c c c u 9.! J H m m j g g O l.C.C.:.:.@.@.{ >.>.b >XQ.T.Z.Z.N.N.B.B.B.w <X.X{.{.3.2.1.,.,.,.k.9X9X5X5X&X&X=X",
"=X=Xi | c c c c c c c c c u j g g g g g g g g O r.>.>.>.>.>.>.>.>.>.b Y.B.B.B.B.B.B.B.B.B.w {.,.,.,.,.,.,.,.,.,.k.=X=X=X=X=X=X=X",
"=X=Xi ( c c c c c c c c c > g g g g g g g g g O R >.>.>.>.>.>.>.>.>.b m.B.B.B.B.B.B.B.B.B.w 1.,.,.,.,.,.,.,.,.,.5.=X=X=X=X=X=X=X",
"=X=Xw c c c c c c c c c c $ g g g g g g g g g O V >.>.>.>.>.>.>.>.>.b O.B.B.B.B.B.B.B.B.B.5 ,.,.,.,.,.,.,.,.,.,.U =X=X=X=X=X=X=X",
"e.5.p y K A N , s.s.e.e.Y p K K N N > z.z.e.y.Y Y K K L N 8 t.e.p i e q 3 3 @ X d h.t.d s u u q q 6 $ x.x.y.t.5.5.I I K L > s.s.",
",.,.,.,.,.,.,.L 2X,.,.,.,.,.,.,.,.,.Y |.XXXXXXXXXXXXXXXX2.7.v v v v v v v v v k l.#.#.#.#.#.#.#.#.#., 7XXXXXXXXXXXXXXXXXXXY {.,."
};
